<svg width="29" height="29" viewBox="0 0 29 29" fill="none" xmlns="http://www.w3.org/2000/svg">
<rect width="29" height="29" rx="12" fill="#072D2D"/>
<path d="M21.6999 17.4517C21.6599 17.4883 21.7115 17.5502 21.7548 17.5176C22.3282 17.0846 22.8764 16.6885 23.5267 16.334C23.5927 16.2982 23.5812 16.1997 23.5086 16.1801C21.4566 15.6171 20.5856 17.2873 18.8275 17.0744C18.7892 17.0697 18.7759 17.0205 18.8066 16.9973C19.1453 16.7402 19.4843 16.5368 19.7865 16.2551C20.6087 15.489 21.2522 14.5939 21.8588 13.6533C21.9866 13.4549 22.1051 13.2713 22.2806 13.1276C22.3669 13.057 22.4961 13.1185 22.5001 13.2301C22.5225 13.838 22.1679 14.6971 21.9025 15.2533C21.8834 15.2931 21.9299 15.3318 21.9661 15.3065C22.6561 14.8217 22.9204 13.8619 23.128 13.0172C23.2374 12.5718 23.4758 12.1475 23.8538 11.8481C23.9524 11.7702 24.0947 11.8535 24.0726 11.9773L23.822 13.3897C23.7134 14.0023 23.5364 14.5559 23.236 15.0845C23.2111 15.128 23.2678 15.1722 23.3032 15.1367C23.7 14.7391 23.9827 14.2652 24.1925 13.7344L24.6464 12.5863C24.7749 12.2616 24.967 11.9839 25.261 11.7749C25.3563 11.7072 25.4863 11.7862 25.4729 11.9024C25.3715 12.7883 25.0031 13.9078 24.6619 14.6826C24.6435 14.7246 24.6951 14.7623 24.7294 14.7319C25.4188 14.1178 26.4623 13.1754 27.3386 13.292C27.4441 13.3061 27.4932 13.4317 27.4249 13.5136C27.3502 13.603 27.2697 13.6801 27.1805 13.7522C26.3998 14.3811 25.6556 15.0136 25.0198 15.7902L23.414 17.7515C22.9746 18.288 22.581 18.8568 22.0657 19.3181C21.5263 19.8015 20.82 19.9177 20.1296 20.0806C18.287 20.5158 16.6725 21.4829 15.3185 22.8645C15.2925 22.8913 15.2466 22.8743 15.2448 22.837C15.1943 21.7801 15.3874 20.779 15.7074 19.8015C15.9619 19.0238 16.4057 18.3514 17.0539 17.8572C18.0107 17.1276 19.0236 17.4734 19.9303 17.2185C21.1135 16.8861 21.9744 16.0578 23.1894 16.2743C23.2685 16.2884 23.2844 16.3948 23.2125 16.431C22.6633 16.7095 22.1679 17.023 21.6992 17.4521L21.6999 17.4517Z" fill="#3AC6B4"/>
<path d="M7.32397 17.5488C6.85059 17.1212 6.3068 16.7472 5.7009 16.429C5.63193 16.3928 5.64565 16.2892 5.7222 16.2736C6.55992 16.1038 7.46769 16.5589 8.22127 16.9214C8.83439 17.2164 9.47315 17.3421 10.1596 17.3493C11.2461 17.3605 12.19 17.8468 12.7449 18.7758C13.379 19.8367 13.8296 21.5742 13.7686 22.8697C13.7668 22.9069 13.7213 22.9236 13.6953 22.8968C12.4889 21.6564 11.054 20.7675 9.41032 20.2378C8.32779 19.8892 7.3785 20.0087 6.53248 18.9768L4.50101 16.4999C3.62502 15.4315 2.7205 14.4713 1.60222 13.6476C1.55564 13.6136 1.51014 13.5567 1.47114 13.4959C1.41806 13.413 1.47006 13.3004 1.56755 13.2892C2.43235 13.1914 3.57699 14.2179 4.22586 14.7993C4.26089 14.8305 4.31288 14.791 4.29266 14.7486C3.88464 13.9126 3.57591 12.8337 3.39573 11.909C3.37226 11.7881 3.50766 11.7023 3.60805 11.7732C4.59417 12.4702 4.52087 14.1686 5.6294 15.1176C5.66659 15.1494 5.71931 15.1031 5.69295 15.0615C5.4178 14.6306 5.23185 14.1646 5.13616 13.6476L4.82274 11.9582C4.79999 11.8348 4.94226 11.7482 5.04011 11.8268C5.32537 12.0564 5.56404 12.3388 5.66731 12.6708L6.13239 14.1668C6.27899 14.6389 6.55847 15.0263 6.97408 15.3211C7.01055 15.3468 7.05749 15.3066 7.03727 15.2667C6.8004 14.8026 6.3736 13.799 6.4144 13.2215C6.42234 13.1092 6.55811 13.0564 6.6408 13.1328C6.7809 13.262 6.89067 13.388 6.9878 13.5452C7.51318 14.396 8.08261 15.1799 8.7777 15.9047C9.18176 16.3258 9.62986 16.6422 10.1123 17.001C10.144 17.0249 10.1296 17.076 10.0899 17.0789C9.52334 17.1205 9.01205 16.9854 8.51556 16.7776L7.34781 16.2888C6.72493 16.0282 6.05837 15.9836 5.40047 16.1766C5.32862 16.1976 5.31923 16.2957 5.38531 16.3308C6.0739 16.6962 6.63936 17.1444 7.26909 17.6154C7.31278 17.648 7.36406 17.5857 7.32361 17.5488H7.32397Z" fill="#3AC6B4"/>
<path d="M15.034 16.395C16.1942 14.7867 17.9213 15.6002 18.9226 15.2668C19.2624 15.1535 19.4021 14.8298 19.2746 14.5014C19.0305 13.8729 19.5992 13.8573 19.4559 13.5854C19.3635 13.4101 19.019 13.5046 18.837 13.3786C19.0078 13.3761 19.7664 13.1357 19.5794 12.8902C19.4602 12.7338 19.396 12.4793 19.535 12.3174C19.6545 12.1788 20.0701 12.0759 20.0856 11.8279C20.0903 11.7544 20.0452 11.678 19.9777 11.6201C19.5054 11.2124 18.9255 10.5973 18.8908 9.93255C18.8276 8.72073 18.2831 7.47343 17.1496 6.92672C16.4416 6.58494 15.6501 6.4984 14.8813 6.66604C14.1126 6.83367 13.4965 7.24135 12.9434 7.78517C13.0362 7.5701 13.2456 7.48067 13.3731 7.29747C14.6777 6.07769 16.9048 6.06212 18.1697 7.32318C18.794 7.94556 19.1497 8.77287 19.223 9.65014C19.2678 10.1871 19.4613 10.6244 19.8354 11.0046C19.9701 11.1415 20.0954 11.3015 20.2521 11.4203C20.4854 11.5969 20.5041 11.8841 20.333 12.1107C20.2015 12.2849 20.017 12.3587 19.8224 12.4652C19.7249 12.5184 19.7726 12.7023 19.8271 12.778C20.0492 13.0868 19.8646 13.1969 19.7155 13.4308C19.8834 13.6107 19.8466 13.8609 19.6675 14.0086C19.5213 14.1296 19.5386 14.3189 19.5917 14.4945C19.6866 14.8077 19.6447 15.1665 19.3667 15.3682C19.0887 15.5698 18.7525 15.6357 18.4174 15.6361L17.1904 15.6372C16.513 15.6375 15.9115 15.9522 15.4778 16.4677C15.0745 16.9185 14.8438 17.4518 14.6921 18.0416C14.4491 18.9873 14.5159 19.9359 14.7246 20.9026C14.3415 19.9251 14.2353 18.8584 14.4216 17.8179C14.5159 17.2911 14.7195 16.8323 15.034 16.3961V16.395Z" fill="#3AC6B4"/>
<path d="M5.48669 8.86302C5.90771 8.61754 6.38507 8.61971 6.85051 8.699C8.37465 9.03282 9.64711 9.88547 11.2117 9.0473C11.4789 8.90393 11.7122 8.74281 11.9725 8.57844C12.6156 8.1722 13.3699 7.96655 14.1285 8.09364C14.872 8.21819 15.639 8.68561 16.3951 8.67728C17.0866 8.66968 17.5545 8.17112 17.6173 7.48212C17.7257 8.11753 17.3324 8.67836 16.7251 8.84708C16.0513 9.03427 15.2642 8.76888 14.616 8.56033C13.8447 8.31196 13.0608 8.36917 12.361 8.77431L11.584 9.22399C10.8141 9.66932 9.95042 9.79351 9.0831 9.58243C8.13778 9.35252 7.52971 8.96294 6.61255 8.76852C6.2233 8.68054 5.86872 8.75331 5.48633 8.86302H5.48669Z" fill="url(#paint0_linear_2001_263)"/>
<path d="M10.0447 10.4043C8.83252 10.4018 7.84314 9.95101 6.89746 9.18526C7.31957 9.42711 7.72543 9.65919 8.19087 9.85C9.53194 10.4 11.0279 10.2827 12.2589 9.51835C12.955 9.08605 13.6111 8.68923 14.4676 8.88475C14.0531 8.91262 13.6609 8.93073 13.2941 9.1295C12.9496 9.31596 12.642 9.52704 12.3137 9.73921C11.6273 10.1824 10.8661 10.4061 10.045 10.4043H10.0447Z" fill="url(#paint1_linear_2001_263)"/>
<path d="M25.4878 8.98613C24.1237 8.46295 23.4849 9.52234 22.3803 9.83914C21.8344 9.99555 21.3036 9.86123 20.9068 9.45536C20.2261 8.75984 19.9705 7.93905 18.9385 7.79748C20.0925 7.68778 20.6363 8.98432 21.2805 9.45029C22.1879 10.1063 23.0725 9.18743 23.9428 8.89959C24.4519 8.73015 25.0123 8.6896 25.4882 8.98613H25.4878Z" fill="url(#paint2_linear_2001_263)"/>
<defs>
<linearGradient id="paint0_linear_2001_263" x1="5.48633" y1="7.48212" x2="6.2581" y2="11.7432" gradientUnits="userSpaceOnUse">
<stop stop-color="#FFB900"/>
<stop offset="1" stop-color="#FF9500"/>
</linearGradient>
<linearGradient id="paint1_linear_2001_263" x1="6.89746" y1="8.8335" x2="7.52245" y2="11.8455" gradientUnits="userSpaceOnUse">
<stop stop-color="#FFB900"/>
<stop offset="1" stop-color="#FF9500"/>
</linearGradient>
<linearGradient id="paint2_linear_2001_263" x1="18.9385" y1="7.79092" x2="20.1719" y2="11.6167" gradientUnits="userSpaceOnUse">
<stop stop-color="#FFB900"/>
<stop offset="1" stop-color="#FF9500"/>
</linearGradient>
</defs>
</svg>
