<svg width="40" height="40" viewBox="0 0 40 40" fill="none" xmlns="http://www.w3.org/2000/svg">
<path d="M0 14C0 6.26801 6.26801 0 14 0H26C33.732 0 40 6.26801 40 14V26C40 33.732 33.732 40 26 40H14C6.26801 40 0 33.732 0 26V14Z" fill="url(#paint0_linear_127_1665)"/>
<path d="M18.6248 22.3334C18.5653 22.1027 18.445 21.8922 18.2765 21.7237C18.1081 21.5552 17.8975 21.4349 17.6668 21.3754L13.5768 20.3208C13.507 20.3009 13.4456 20.2589 13.4019 20.201C13.3581 20.1432 13.3345 20.0726 13.3345 20.0001C13.3345 19.9275 13.3581 19.857 13.4019 19.7991C13.4456 19.7413 13.507 19.6992 13.5768 19.6794L17.6668 18.6241C17.8974 18.5646 18.1079 18.4445 18.2764 18.2761C18.4449 18.1078 18.5652 17.8973 18.6248 17.6668L19.6795 13.5768C19.6991 13.5067 19.741 13.445 19.799 13.401C19.857 13.357 19.9277 13.3333 20.0005 13.3333C20.0732 13.3333 20.144 13.357 20.2019 13.401C20.2599 13.445 20.3019 13.5067 20.3215 13.5768L21.3755 17.6668C21.435 17.8975 21.5552 18.108 21.7237 18.2765C21.8922 18.445 22.1027 18.5652 22.3335 18.6248L26.4235 19.6788C26.4938 19.6982 26.5558 19.7401 26.6 19.7981C26.6442 19.8562 26.6682 19.9271 26.6682 20.0001C26.6682 20.073 26.6442 20.144 26.6 20.202C26.5558 20.2601 26.4938 20.302 26.4235 20.3214L22.3335 21.3754C22.1027 21.4349 21.8922 21.5552 21.7237 21.7237C21.5552 21.8922 21.435 22.1027 21.3755 22.3334L20.3208 26.4234C20.3012 26.4935 20.2592 26.5552 20.2012 26.5992C20.1433 26.6431 20.0725 26.6669 19.9998 26.6669C19.927 26.6669 19.8563 26.6431 19.7983 26.5992C19.7404 26.5552 19.6984 26.4935 19.6788 26.4234L18.6248 22.3334Z" stroke="white" stroke-width="1.33333" stroke-linecap="round" stroke-linejoin="round"/>
<path d="M25.3335 14V16.6667" stroke="white" stroke-width="1.33333" stroke-linecap="round" stroke-linejoin="round"/>
<path d="M26.6667 15.3333H24" stroke="white" stroke-width="1.33333" stroke-linecap="round" stroke-linejoin="round"/>
<path d="M14.6665 23.3333V24.6666" stroke="white" stroke-width="1.33333" stroke-linecap="round" stroke-linejoin="round"/>
<path d="M15.3333 24H14" stroke="white" stroke-width="1.33333" stroke-linecap="round" stroke-linejoin="round"/>
<defs>
<linearGradient id="paint0_linear_127_1665" x1="0" y1="20" x2="40" y2="20" gradientUnits="userSpaceOnUse">
<stop stop-color="#009689"/>
<stop offset="1" stop-color="#00BBA7"/>
</linearGradient>
</defs>
</svg>
