<svg width="40" height="40" viewBox="0 0 40 40" fill="none" xmlns="http://www.w3.org/2000/svg">
<path d="M0 14C0 6.26801 6.26801 0 14 0H26C33.732 0 40 6.26801 40 14V26C40 33.732 33.732 40 26 40H14C6.26801 40 0 33.732 0 26V14Z" fill="#F3F4F6"/>
<path d="M18.6245 22.3334C18.565 22.1027 18.4448 21.8922 18.2763 21.7237C18.1078 21.5552 17.8973 21.4349 17.6665 21.3754L13.5765 20.3208C13.5068 20.3009 13.4454 20.2589 13.4016 20.201C13.3579 20.1432 13.3342 20.0726 13.3342 20.0001C13.3342 19.9275 13.3579 19.857 13.4016 19.7991C13.4454 19.7413 13.5068 19.6992 13.5765 19.6794L17.6665 18.6241C17.8972 18.5646 18.1077 18.4445 18.2761 18.2761C18.4446 18.1078 18.5649 17.8973 18.6245 17.6668L19.6792 13.5768C19.6988 13.5067 19.7408 13.445 19.7988 13.401C19.8567 13.357 19.9275 13.3333 20.0002 13.3333C20.073 13.3333 20.1437 13.357 20.2017 13.401C20.2596 13.445 20.3016 13.5067 20.3212 13.5768L21.3752 17.6668C21.4347 17.8975 21.555 18.108 21.7235 18.2765C21.8919 18.445 22.1025 18.5652 22.3332 18.6248L26.4232 19.6788C26.4935 19.6982 26.5556 19.7401 26.5998 19.7981C26.644 19.8562 26.6679 19.9271 26.6679 20.0001C26.6679 20.073 26.644 20.144 26.5998 20.202C26.5556 20.2601 26.4935 20.302 26.4232 20.3214L22.3332 21.3754C22.1025 21.4349 21.8919 21.5552 21.7235 21.7237C21.555 21.8922 21.4347 22.1027 21.3752 22.3334L20.3205 26.4234C20.3009 26.4935 20.259 26.5552 20.201 26.5992C20.143 26.6431 20.0723 26.6669 19.9995 26.6669C19.9268 26.6669 19.8561 26.6431 19.7981 26.5992C19.7401 26.5552 19.6982 26.4935 19.6785 26.4234L18.6245 22.3334Z" stroke="#99A1AF" stroke-width="1.33333" stroke-linecap="round" stroke-linejoin="round"/>
<path d="M25.3333 14V16.6667" stroke="#99A1AF" stroke-width="1.33333" stroke-linecap="round" stroke-linejoin="round"/>
<path d="M26.6667 15.3333H24" stroke="#99A1AF" stroke-width="1.33333" stroke-linecap="round" stroke-linejoin="round"/>
<path d="M14.6667 23.3333V24.6666" stroke="#99A1AF" stroke-width="1.33333" stroke-linecap="round" stroke-linejoin="round"/>
<path d="M15.3333 24H14" stroke="#99A1AF" stroke-width="1.33333" stroke-linecap="round" stroke-linejoin="round"/>
</svg>
