<svg width="20" height="20" viewBox="0 0 20 20" fill="none" xmlns="http://www.w3.org/2000/svg">
<path d="M7.5 10H7.50833" stroke="#EC003F" stroke-width="1.66667" stroke-linecap="round" stroke-linejoin="round"/>
<path d="M12.5 10H12.5083" stroke="#EC003F" stroke-width="1.66667" stroke-linecap="round" stroke-linejoin="round"/>
<path d="M8.33337 13.3333C8.75004 13.5833 9.33337 13.7499 10 13.7499C10.6667 13.7499 11.25 13.5833 11.6667 13.3333" stroke="#EC003F" stroke-width="1.66667" stroke-linecap="round" stroke-linejoin="round"/>
<path d="M15.8333 5.25C16.5883 6.19639 17.1029 7.31148 17.3333 8.5C17.6151 8.63647 17.8527 8.84956 18.019 9.11485C18.1853 9.38014 18.2735 9.68691 18.2735 10C18.2735 10.3131 18.1853 10.6199 18.019 10.8851C17.8527 11.1504 17.6151 11.3635 17.3333 11.5C16.9735 13.1779 16.0493 14.6817 14.7147 15.7604C13.3801 16.8392 11.716 17.4277 9.99996 17.4277C8.28392 17.4277 6.61978 16.8392 5.28522 15.7604C3.95065 14.6817 3.02638 13.1779 2.66662 11.5C2.38484 11.3635 2.14719 11.1504 1.98091 10.8851C1.81463 10.6199 1.72644 10.3131 1.72644 10C1.72644 9.68691 1.81463 9.38014 1.98091 9.11485C2.14719 8.84956 2.38484 8.63647 2.66662 8.5C3.01184 6.80875 3.92987 5.28835 5.26581 4.19531C6.60176 3.10226 8.27384 2.50348 9.99996 2.5C11.6666 2.5 12.9166 3.41667 12.9166 4.58333C12.9166 5.75 12.1666 6.66667 11.25 6.66667C10.5833 6.66667 9.99996 6.33333 9.99996 5.83333" stroke="#EC003F" stroke-width="1.66667" stroke-linecap="round" stroke-linejoin="round"/>
</svg>
