<svg width="167" height="99" viewBox="0 0 167 99" fill="none" xmlns="http://www.w3.org/2000/svg">
<path d="M109.06 41.4375C108.91 41.5743 109.103 41.806 109.265 41.6841C111.407 40.0635 113.454 38.5811 115.883 37.2545C116.13 37.1204 116.087 36.7518 115.816 36.6787C108.151 34.5716 104.898 40.8223 98.3314 40.0255C98.1885 40.0079 98.1386 39.8236 98.2532 39.7369C99.5183 38.7749 100.785 38.0133 101.914 36.9591C104.984 34.0919 107.388 30.7423 109.654 27.222C110.131 26.4795 110.573 25.7925 111.229 25.2545C111.551 24.9903 112.034 25.2207 112.049 25.638C112.132 27.9131 110.808 31.1285 109.817 33.2098C109.745 33.3589 109.919 33.5039 110.054 33.409C112.631 31.5946 113.619 28.0025 114.394 24.8413C114.803 23.1746 115.693 21.5865 117.105 20.4659C117.473 20.1746 118.004 20.4862 117.922 20.9497L116.986 26.2356C116.58 28.5282 115.919 30.6001 114.797 32.5784C114.704 32.741 114.916 32.9063 115.048 32.7735C116.53 31.2857 117.586 29.512 118.37 27.5255L120.065 23.2288C120.545 22.0133 121.263 20.974 122.361 20.1922C122.717 19.9388 123.202 20.2342 123.152 20.6692C122.773 23.9849 121.398 28.1746 120.123 31.0743C120.054 31.2315 120.247 31.3724 120.375 31.2586C122.95 28.9605 126.848 25.4334 130.121 25.8697C130.515 25.9226 130.698 26.3927 130.443 26.699C130.164 27.0337 129.863 27.3223 129.53 27.5919C126.614 29.9456 123.835 32.3128 121.46 35.2193L115.462 42.5594C113.821 44.5675 112.351 46.6963 110.426 48.4226C108.411 50.2315 105.773 50.6665 103.195 51.2762C96.3125 52.9049 90.2826 56.5242 85.2251 61.6949C85.128 61.7952 84.9567 61.7315 84.9499 61.5919C84.7611 57.6367 85.4826 53.89 86.6776 50.2315C87.6284 47.3209 89.2859 44.8047 91.7068 42.9551C95.2807 40.2247 99.0638 41.5188 102.45 40.5648C106.87 39.3209 110.085 36.2207 114.623 37.031C114.919 37.0838 114.978 37.4822 114.71 37.6177C112.658 38.6597 110.808 39.8331 109.057 41.4388L109.06 41.4375Z" fill="#3AC6B4"/>
<path d="M55.3655 41.8008C53.5974 40.2006 51.5663 38.8008 49.3033 37.6098C49.0457 37.4743 49.0969 37.0867 49.3828 37.0285C52.5117 36.393 55.9023 38.0962 58.717 39.4526C61.007 40.5569 63.3928 41.0271 65.9566 41.0542C70.0148 41.0962 73.5402 42.916 75.6131 46.393C77.9814 50.3632 79.6645 56.8659 79.4366 61.7141C79.4299 61.8537 79.2599 61.916 79.1628 61.8157C74.6569 57.1735 69.2973 53.8469 63.1581 51.8645C59.1148 50.5596 55.5692 51.0068 52.4092 47.145L44.8216 37.8753C41.5498 33.8767 38.1713 30.2832 33.9945 27.2006C33.8205 27.0732 33.6506 26.8604 33.5049 26.6328C33.3067 26.3225 33.5009 25.9011 33.865 25.8591C37.0951 25.4932 41.3704 29.3347 43.7939 31.5109C43.9248 31.6274 44.119 31.4797 44.0434 31.3211C42.5194 28.1924 41.3663 24.1545 40.6933 20.6938C40.6057 20.2412 41.1114 19.9201 41.4864 20.1856C45.1696 22.794 44.8958 29.1504 49.0362 32.7019C49.1751 32.8211 49.372 32.6477 49.2736 32.4919C48.2459 30.8794 47.5513 29.1355 47.1939 27.2006L46.0233 20.8781C45.9383 20.416 46.4697 20.0922 46.8352 20.3862C47.9006 21.2453 48.7921 22.3022 49.1778 23.5447L50.9149 29.1436C51.4625 30.9106 52.5063 32.3604 54.0587 33.4634C54.1949 33.5596 54.3702 33.4092 54.2947 33.2602C53.41 31.523 51.8158 27.7669 51.9682 25.6057C51.9979 25.1856 52.505 24.9878 52.8138 25.2737C53.3371 25.7575 53.7471 26.229 54.1099 26.8171C56.0722 30.0014 58.1991 32.935 60.7953 35.6477C62.3044 37.2236 63.9781 38.4079 65.78 39.7507C65.8986 39.8401 65.8447 40.0312 65.6963 40.042C63.5803 40.1978 61.6706 39.6924 59.8161 38.9146L55.4545 37.0854C53.1281 36.1098 50.6384 35.9431 48.1812 36.6653C47.9128 36.7439 47.8777 37.1111 48.1245 37.2426C50.6964 38.6098 52.8085 40.2873 55.1605 42.0501C55.3237 42.1721 55.5152 41.939 55.3642 41.8008H55.3655Z" fill="#3AC6B4"/>
<path d="M84.1638 37.4825C88.4971 31.4635 94.9478 34.5083 98.6876 33.2603C99.9567 32.8362 100.479 31.6248 100.003 30.3958C99.0909 28.0435 101.215 27.9852 100.68 26.9676C100.334 26.3118 99.0477 26.6654 98.368 26.1939C99.0059 26.1844 101.839 25.2847 101.141 24.366C100.696 23.7806 100.456 22.828 100.975 22.2223C101.421 21.7034 102.974 21.3186 103.032 20.3904C103.049 20.1153 102.881 19.8294 102.628 19.6126C100.864 18.0868 98.6984 15.7847 98.5689 13.2969C98.3329 8.76164 96.2991 4.09362 92.0656 2.04755C89.4209 0.768417 86.4646 0.444569 83.5933 1.07194C80.722 1.69931 78.4211 3.22506 76.355 5.26029C76.7016 4.45541 77.4838 4.12072 77.9599 3.43508C82.8326 -1.12996 91.1512 -1.18822 95.8756 3.53129C98.2075 5.86056 99.5359 8.95676 99.8097 12.24C99.9769 14.2494 100.7 15.8863 102.097 17.3091C102.6 17.8213 103.068 18.4202 103.653 18.8646C104.525 19.5259 104.595 20.6004 103.956 21.4486C103.465 22.1004 102.775 22.3768 102.049 22.7752C101.684 22.9744 101.862 23.6627 102.066 23.9459C102.895 25.1017 102.206 25.5137 101.649 26.389C102.276 27.0625 102.139 27.9988 101.47 28.5516C100.924 29.0042 100.988 29.7129 101.187 30.37C101.541 31.5421 101.385 32.8849 100.346 33.6397C99.308 34.3944 98.0524 34.641 96.8008 34.6424L92.218 34.6465C89.6879 34.6478 87.4411 35.8253 85.8213 37.7549C84.3148 39.4419 83.453 41.4378 82.8866 43.6451C81.9789 47.1844 82.2284 50.7345 83.008 54.3524C81.577 50.6939 81.1805 46.702 81.8764 42.8077C82.2284 40.8362 82.9891 39.1194 84.1638 37.4866V37.4825Z" fill="#3AC6B4"/>
<path d="M48.5035 9.294C50.0761 8.3753 51.859 8.38343 53.5975 8.68018C59.2902 9.9295 64.0429 13.1206 69.8867 9.9837C70.8847 9.44712 71.756 8.84413 72.7284 8.22896C75.1303 6.70863 77.9477 5.93898 80.7813 6.41459C83.5582 6.88072 86.4228 8.63004 89.2469 8.59888C91.8296 8.57042 93.5775 6.70457 93.8121 4.12598C94.2167 6.50403 92.748 8.60294 90.4796 9.23438C87.9629 9.93492 85.0228 8.9417 82.602 8.16121C79.7212 7.23167 76.7933 7.44576 74.1795 8.96202L71.2772 10.6449C68.4018 12.3116 65.1758 12.7764 61.9363 11.9864C58.4055 11.126 56.1343 9.66798 52.7087 8.94034C51.2548 8.61107 49.9304 8.88343 48.5022 9.294H48.5035Z" fill="url(#paint0_linear_200_976)"/>
<path d="M65.5278 15.0624C61.0004 15.0529 57.305 13.3659 53.7728 10.5001C55.3494 11.4052 56.8653 12.2738 58.6038 12.9879C63.6127 15.0461 69.2003 14.6071 73.7979 11.7467C76.3981 10.1288 78.8487 8.64369 82.0477 9.3754C80.4994 9.47973 79.0348 9.54748 77.6645 10.2914C76.3779 10.9892 75.2288 11.7792 74.0029 12.5732C71.4391 14.2318 68.5961 15.0692 65.5292 15.0624H65.5278Z" fill="url(#paint1_linear_200_976)"/>
<path d="M123.209 9.75479C118.114 7.7968 115.728 11.7616 111.602 12.9472C109.563 13.5326 107.581 13.0299 106.099 11.5109C103.556 8.90791 102.601 5.83609 98.7469 5.30628C103.057 4.89571 105.088 9.74802 107.494 11.4919C110.884 13.9472 114.188 10.5082 117.438 9.43094C119.34 8.7968 121.433 8.64504 123.21 9.75479H123.209Z" fill="url(#paint2_linear_200_976)"/>
<g clip-path="url(#clip0_200_976)">
<path d="M0 76.4487C0 70.7261 4.03065 66.9727 9.01122 66.9727C12.3706 66.9727 15.7992 68.6863 16.9801 72.2549L15.4744 72.8569C14.3859 70.0996 11.861 68.5246 9.03432 68.5246C5.11916 68.5246 1.7598 71.4898 1.7598 76.4704C1.7598 81.7527 5.53637 84.2545 9.2884 84.2545C13.0404 84.2545 15.3575 81.7527 16.1919 78.7874L17.6745 79.3201C16.5398 83.0274 13.6901 85.8064 9.12527 85.8064C3.77657 85.8079 0 81.962 0 76.4487Z" fill="#3AC6B4"/>
<path d="M20.2947 72.6264H21.8004V75.2668H21.8928C22.541 73.4825 24.1636 72.2554 26.0404 72.2554C26.4807 72.2554 27.0365 72.3247 27.4999 72.5095V74.2C27.0365 74.0152 26.319 73.8982 25.9249 73.8982C23.1906 73.8982 21.848 76.6094 21.848 79.2036V85.4127H20.2961V72.6264H20.2947Z" fill="#3AC6B4"/>
<path d="M28.4037 82.4721C28.4037 80.0626 30.5807 79.0665 33.0132 78.5569C35.3765 78.0704 37.067 78.0242 37.067 76.3799C37.067 74.9435 35.7922 73.5994 33.8231 73.5994C32.1095 73.5994 30.8579 74.6417 30.3483 76.2875L28.8425 75.7548C29.6077 73.2991 31.8078 72.2568 33.9386 72.2568C36.2556 72.2568 38.6882 73.4854 38.6882 76.5199V81.4081C38.6882 83.5389 38.8499 84.4195 39.1054 85.4156H37.5304C37.2994 84.5119 37.2287 83.7482 37.2287 82.7521H37.1825C36.3711 84.4903 34.7961 85.8098 32.456 85.8098C30.279 85.8098 28.4022 84.7213 28.4022 82.4735L28.4037 82.4721ZM32.7346 84.5336C35.4212 84.5336 37.0901 82.0086 37.0901 80.2936V78.5555C36.3726 79.1113 35.7691 79.3206 34.0555 79.644C32.5729 79.9226 30.0942 80.4553 30.0942 82.4013C30.0942 83.6992 31.1134 84.5321 32.7346 84.5321V84.5336Z" fill="#3AC6B4"/>
<path d="M42.651 72.6264H44.1567V75.082H44.2029C45.2221 73.0898 46.891 72.2554 48.7201 72.2554C50.9909 72.2554 53.3773 73.5301 53.3773 77.3991V85.4142H51.8254V78.0935C51.8254 74.8958 50.181 73.6918 48.3043 73.6918C45.687 73.6918 44.2044 76.0088 44.2044 78.2783V85.4142H42.6524V72.6264H42.651Z" fill="#3AC6B4"/>
<path d="M58.1268 66.7881C58.8443 66.7881 59.4016 67.367 59.4016 68.0628C59.4016 68.8049 58.8458 69.3838 58.1268 69.3838C57.3617 69.3838 56.8059 68.8049 56.8059 68.0628C56.8059 67.3684 57.3617 66.7881 58.1268 66.7881ZM57.3155 72.6262H58.8674V85.414H57.3155V72.6262Z" fill="#3AC6B4"/>
<path d="M61.9958 79.0434C61.9958 75.0589 64.6363 72.2554 68.4128 72.2554C72.1894 72.2554 74.7836 75.0589 74.7836 79.0434C74.7836 83.0278 72.1663 85.8083 68.4128 85.8083C64.6594 85.8083 61.9958 83.0278 61.9958 79.0434ZM68.4128 84.3719C71.2164 84.3719 73.1393 82.1718 73.1393 79.0434C73.1393 75.915 71.2164 73.6918 68.4128 73.6918C65.6093 73.6918 63.6633 75.9165 63.6633 79.0434C63.6633 82.1703 65.6093 84.3719 68.4128 84.3719Z" fill="#3AC6B4"/>
<path d="M78.0505 67.3438H84.5368C88.2672 67.3438 90.2825 69.5684 90.2825 72.0471C90.2825 73.7607 89.3095 75.5913 87.0387 76.1933V76.2395C89.6791 76.726 90.8845 78.6027 90.8845 80.5719C90.8845 83.4216 88.4058 85.4138 85.325 85.4138H78.0505V67.3438ZM84.2827 75.5913C86.9463 75.5913 88.5458 74.2242 88.5458 72.2781C88.5458 70.1704 86.646 68.8495 84.1211 68.8495H79.7194V75.5913H84.2827ZM84.8154 83.9081C87.4559 83.9081 89.1247 82.5179 89.1247 80.5488C89.1247 78.5796 87.2942 77.0508 84.6538 77.0508H79.7194V83.9081H84.8154Z" fill="#3AC6B4"/>
<path d="M93.2247 82.4721C93.2247 80.0626 95.4017 79.0665 97.8343 78.5569C100.198 78.0704 101.888 78.0242 101.888 76.3799C101.888 74.9435 100.613 73.5994 98.6441 73.5994C96.9305 73.5994 95.6789 74.6417 95.1693 76.2875L93.6636 75.7548C94.4287 73.2991 96.6288 72.2568 98.7596 72.2568C101.077 72.2568 103.509 73.4854 103.509 76.5199V81.4081C103.509 83.5389 103.671 84.4195 103.926 85.4156H102.351C102.12 84.5119 102.05 83.7482 102.05 82.7521H102.004C101.192 84.4903 99.6172 85.8098 97.277 85.8098C95.1 85.8098 93.2233 84.7213 93.2233 82.4735L93.2247 82.4721ZM97.5571 84.5336C100.245 84.5336 101.913 82.0086 101.913 80.2936V78.5555C101.195 79.1113 100.592 79.3206 98.878 79.644C97.3954 79.9226 94.9167 80.4553 94.9167 82.4013C94.9167 83.6992 95.9359 84.5321 97.5571 84.5321V84.5336Z" fill="#3AC6B4"/>
<path d="M107.472 66.8804H109.024V85.4139H107.472V66.8804Z" fill="#3AC6B4"/>
<path d="M112.175 82.4721C112.175 80.0626 114.352 79.0665 116.785 78.5569C119.148 78.0704 120.839 78.0242 120.839 76.3799C120.839 74.9435 119.564 73.5994 117.595 73.5994C115.881 73.5994 114.63 74.6417 114.12 76.2875L112.614 75.7548C113.379 73.2991 115.58 72.2568 117.71 72.2568C120.027 72.2568 122.46 73.4854 122.46 76.5199V81.4081C122.46 83.5389 122.622 84.4195 122.877 85.4156H121.302C121.071 84.5119 121 83.7482 121 82.7521H120.954C120.143 84.4903 118.568 85.8098 116.228 85.8098C114.051 85.8098 112.174 84.7213 112.174 82.4735L112.175 82.4721ZM116.508 84.5336C119.196 84.5336 120.863 82.0086 120.863 80.2936V78.5555C120.146 79.1113 119.542 79.3206 117.829 79.644C116.346 79.9226 113.867 80.4553 113.867 82.4013C113.867 83.6992 114.887 84.5321 116.508 84.5321V84.5336Z" fill="#3AC6B4"/>
<path d="M126.423 72.6264H127.928V75.082H127.975C128.994 73.0898 130.663 72.2554 132.492 72.2554C134.763 72.2554 137.149 73.5301 137.149 77.3991V85.4142H135.597V78.0935C135.597 74.8958 133.953 73.6918 132.076 73.6918C129.459 73.6918 127.976 76.0088 127.976 78.2783V85.4142H126.424V72.6264H126.423Z" fill="#3AC6B4"/>
<path d="M140.093 79.0434C140.093 74.9896 142.733 72.2554 146.463 72.2554C148.734 72.2554 150.958 73.2977 151.977 75.8919L150.471 76.4708C149.823 74.7096 148.317 73.6904 146.394 73.6904C143.544 73.6904 141.762 76.0074 141.762 79.0419C141.762 82.2396 143.731 84.3704 146.511 84.3704C148.805 84.3704 150.357 82.934 151.098 81.0573L152.511 81.5669C151.515 84.3473 149.221 85.8069 146.465 85.8069C142.735 85.8069 140.094 83.0726 140.094 79.0419L140.093 79.0434Z" fill="#3AC6B4"/>
<path d="M154.178 79.0434C154.178 75.0589 156.796 72.2554 160.457 72.2554C162.889 72.2554 166.295 73.5532 166.295 78.6724V79.3899H155.847C155.916 82.4706 157.862 84.3704 160.55 84.3704C162.752 84.3704 164.281 82.934 164.998 81.1497L166.481 81.6824C165.508 84.2997 163.237 85.8054 160.481 85.8054C156.868 85.8054 154.18 83.0942 154.18 79.0405L154.178 79.0434ZM164.603 77.8163C164.533 74.7817 162.355 73.7394 160.409 73.7394C157.976 73.7394 156.286 75.4299 155.938 77.8163H164.603Z" fill="#3AC6B4"/>
</g>
<path d="M36.1077 98.8981V93.0322H39.7828V93.8046H37.0005V95.5525H39.5832V96.3208H37.0005V98.1271H39.8057V98.8981H36.1063H36.1077Z" fill="#3AC6B4"/>
<path d="M41.7491 98.8981V93.0322H42.642V94.9062L42.6258 96.245L42.642 96.6853V98.8981H41.7491ZM42.3844 97.3385V96.4414C42.5125 96.245 42.6393 96.0593 42.766 95.8859C42.8928 95.7124 43.025 95.5417 43.1639 95.3737C43.3028 95.2057 43.4498 95.0322 43.6063 94.8547L45.2436 93.0322H46.3791L43.8989 95.7761L43.8396 95.7639L42.3817 97.3385H42.3844ZM45.3461 98.8981L43.3595 96.0282L43.9192 95.3398L46.4034 98.8981H45.3461Z" fill="#3AC6B4"/>
<path d="M47.6226 98.8981L49.6995 93.0322H50.796L52.9121 98.8981H51.9437L50.8068 95.6352C50.7178 95.3696 50.6207 95.058 50.5155 94.6989C50.4103 94.3398 50.2875 93.9076 50.1486 93.4035H50.3293C50.1958 93.913 50.0771 94.3493 49.9706 94.7124C49.8654 95.0756 49.771 95.3832 49.6901 95.6352L48.5896 98.8981H47.6212H47.6226ZM48.7474 97.3507V96.6027H51.7846V97.3507H48.7474Z" fill="#3AC6B4"/>
<path d="M53.573 93.8046V93.0322H58.1059V93.8046H56.2919V98.8981H55.3951V93.8046H53.573Z" fill="#3AC6B4"/>
<path d="M59.9091 98.8981V93.0322H63.5842V93.8046H60.8019V95.5525H63.3846V96.3208H60.8019V98.1271H63.6071V98.8981H59.9077H59.9091Z" fill="#3AC6B4"/>
<path d="M65.5505 98.8981V93.0322H67.6423C68.0914 93.0322 68.4664 93.1108 68.7671 93.2666C69.0679 93.4225 69.2917 93.6393 69.4415 93.9184C69.5898 94.1962 69.6653 94.516 69.6653 94.875C69.6653 95.2341 69.5898 95.5539 69.4401 95.8263C69.2904 96.0986 69.0652 96.3087 68.7644 96.4577C68.4637 96.6068 68.0874 96.6826 67.6356 96.6826H66.0644V95.9143H67.5493C67.8365 95.9143 68.0685 95.8723 68.2452 95.7897C68.4219 95.707 68.5513 95.5878 68.6349 95.4333C68.7186 95.2788 68.7604 95.0918 68.7604 94.875C68.7604 94.6582 68.7186 94.4645 68.6349 94.3046C68.5513 94.1447 68.4205 94.02 68.2425 93.932C68.0645 93.8439 67.8311 93.8005 67.5412 93.8005H66.4447V98.8981H65.5519H65.5505ZM68.8683 98.8981L67.4535 96.249H68.4448L69.8825 98.8981H68.8683Z" fill="#3AC6B4"/>
<path d="M72.4449 93.0322V98.8981H71.5521V93.0322H72.4449Z" fill="#3AC6B4"/>
<path d="M74.5408 98.8981V93.0322H75.5712L77.7695 96.5241C77.8423 96.6393 77.9246 96.7775 78.0163 96.9374C78.108 97.0973 78.2038 97.2775 78.3063 97.4794C78.4088 97.6813 78.5086 97.8981 78.6084 98.1352H78.4991C78.4762 97.9116 78.4587 97.6908 78.4465 97.4726C78.4344 97.2531 78.4263 97.0485 78.4209 96.8561C78.4155 96.665 78.4128 96.5024 78.4128 96.3723V93.0336H79.3178V98.8994H78.2833L76.3129 95.7775C76.2091 95.6068 76.1052 95.4347 76.0054 95.2612C75.9043 95.0878 75.7937 94.8886 75.6723 94.661C75.5509 94.4347 75.4026 94.1582 75.2272 93.8317H75.3689C75.3823 94.1203 75.3945 94.3899 75.408 94.6406C75.4215 94.8913 75.4309 95.1135 75.4376 95.3059C75.4444 95.4984 75.4471 95.6528 75.4471 95.768V98.8981H74.5421H74.5408Z" fill="#3AC6B4"/>
<path d="M80.9658 98.8981L83.0428 93.0322H84.1392L86.2553 98.8981H85.287L84.15 95.6352C84.061 95.3696 83.9639 95.058 83.8587 94.6989C83.7535 94.3398 83.6308 93.9076 83.4919 93.4035H83.6726C83.5391 93.913 83.4204 94.3493 83.3139 94.7124C83.2087 95.0756 83.1143 95.3832 83.0333 95.6352L81.9328 98.8981H80.9645H80.9658ZM82.0906 97.3507V96.6027H85.1278V97.3507H82.0906Z" fill="#3AC6B4"/>
<path d="M92.1072 98.8981V93.0322H94.199C94.6481 93.0322 95.023 93.1162 95.3238 93.2843C95.6245 93.4523 95.8484 93.6799 95.9981 93.9658C96.1464 94.2517 96.222 94.5756 96.222 94.9387C96.222 95.3019 96.1464 95.6257 95.9967 95.913C95.8457 96.2002 95.6205 96.4279 95.3211 96.5946C95.0203 96.7612 94.644 96.8439 94.1922 96.8439H92.7613V96.0837H94.1046C94.3918 96.0837 94.6251 96.0336 94.8018 95.9347C94.9798 95.8344 95.1093 95.6989 95.1916 95.5255C95.2739 95.352 95.3157 95.1569 95.3157 94.9387C95.3157 94.7206 95.2752 94.5214 95.1916 94.3507C95.1093 94.1786 94.9785 94.0444 94.8005 93.9469C94.6211 93.8493 94.3864 93.8019 94.0978 93.8019H93V98.8994H92.1072V98.8981Z" fill="#3AC6B4"/>
<path d="M100.492 98.9765C99.9875 98.9765 99.537 98.8559 99.1378 98.6161C98.74 98.3763 98.4257 98.0307 98.1978 97.5809C97.9685 97.131 97.8552 96.5931 97.8552 95.9684C97.8552 95.3437 97.9699 94.8031 98.1978 94.3519C98.4257 93.902 98.74 93.5565 99.1378 93.3139C99.5357 93.0728 99.9875 92.9521 100.492 92.9521C100.996 92.9521 101.445 93.0728 101.842 93.3139C102.237 93.5551 102.55 93.9007 102.778 94.3519C103.006 94.8017 103.12 95.341 103.12 95.9684C103.12 96.5958 103.006 97.131 102.778 97.5809C102.549 98.0307 102.237 98.3763 101.842 98.6161C101.447 98.8559 100.996 98.9765 100.492 98.9765ZM100.492 98.1581C100.824 98.1581 101.12 98.0755 101.383 97.9088C101.646 97.7421 101.854 97.4955 102.006 97.169C102.159 96.8424 102.236 96.4427 102.236 95.9698C102.236 95.4969 102.159 95.0904 102.006 94.7638C101.854 94.4373 101.646 94.1906 101.383 94.024C101.12 93.8573 100.824 93.7746 100.492 93.7746C100.16 93.7746 99.858 93.8587 99.595 94.0267C99.3307 94.1947 99.123 94.4413 98.9706 94.7692C98.8182 95.0958 98.7413 95.4969 98.7413 95.9725C98.7413 96.4481 98.8182 96.8438 98.9706 97.169C99.123 97.4942 99.332 97.7408 99.595 97.9088C99.8594 98.0768 100.157 98.1608 100.492 98.1608V98.1581Z" fill="#3AC6B4"/>
<path d="M104.476 93.8046V93.0322H109.009V93.8046H107.195V98.8981H106.298V93.8046H104.476Z" fill="#3AC6B4"/>
<path d="M110.811 98.8981V93.0322H114.486V93.8046H111.703V95.5525H114.286V96.3208H111.703V98.1271H114.509V98.8981H110.809H110.811Z" fill="#3AC6B4"/>
<path d="M118.905 98.9767C118.378 98.9767 117.914 98.8547 117.516 98.6108C117.118 98.3669 116.807 98.02 116.583 97.5701C116.359 97.1203 116.248 96.5864 116.248 95.9699C116.248 95.3533 116.362 94.8073 116.587 94.3574C116.812 93.9075 117.124 93.5607 117.518 93.3181C117.911 93.0756 118.362 92.9536 118.865 92.9536C119.178 92.9536 119.472 92.9997 119.744 93.0932C120.017 93.1867 120.261 93.3195 120.476 93.4902C120.692 93.6623 120.87 93.8669 121.009 94.104C121.149 94.3411 121.243 94.6027 121.29 94.8859H120.373C120.32 94.7151 120.249 94.5607 120.157 94.4238C120.065 94.287 119.956 94.1691 119.829 94.0715C119.702 93.9739 119.559 93.9008 119.398 93.8493C119.237 93.7978 119.062 93.772 118.87 93.772C118.541 93.772 118.246 93.8561 117.983 94.0241C117.72 94.1921 117.512 94.4387 117.36 94.7666C117.207 95.0932 117.13 95.4929 117.13 95.9658C117.13 96.4387 117.207 96.8371 117.36 97.1623C117.512 97.4875 117.723 97.7355 117.988 97.9048C118.255 98.0742 118.56 98.1582 118.905 98.1582C119.218 98.1582 119.492 98.0945 119.727 97.9672C119.96 97.8398 120.142 97.6582 120.271 97.4238C120.401 97.1894 120.466 96.9116 120.466 96.5905L120.696 96.6298H119.035V95.8899H121.338V96.5634C121.338 97.0566 121.233 97.4834 121.023 97.8452C120.812 98.2057 120.525 98.4848 120.158 98.6813C119.793 98.8777 119.373 98.9767 118.9 98.9767H118.905Z" fill="#3AC6B4"/>
<path d="M125.686 98.9765C125.182 98.9765 124.731 98.8559 124.332 98.6161C123.934 98.3763 123.62 98.0307 123.392 97.5809C123.163 97.131 123.05 96.5931 123.05 95.9684C123.05 95.3437 123.164 94.8031 123.392 94.3519C123.62 93.902 123.934 93.5565 124.332 93.3139C124.73 93.0728 125.182 92.9521 125.686 92.9521C126.191 92.9521 126.64 93.0728 127.036 93.3139C127.432 93.5551 127.744 93.9007 127.972 94.3519C128.2 94.8017 128.315 95.341 128.315 95.9684C128.315 96.5958 128.2 97.131 127.972 97.5809C127.743 98.0307 127.432 98.3763 127.036 98.6161C126.641 98.8559 126.191 98.9765 125.686 98.9765ZM125.686 98.1581C126.018 98.1581 126.315 98.0755 126.578 97.9088C126.841 97.7421 127.048 97.4955 127.201 97.169C127.353 96.8424 127.43 96.4427 127.43 95.9698C127.43 95.4969 127.353 95.0904 127.201 94.7638C127.048 94.4373 126.841 94.1906 126.578 94.024C126.315 93.8573 126.018 93.7746 125.686 93.7746C125.355 93.7746 125.052 93.8587 124.789 94.0267C124.525 94.1947 124.317 94.4413 124.165 94.7692C124.013 95.0958 123.936 95.4969 123.936 95.9725C123.936 96.4481 124.013 96.8438 124.165 97.169C124.317 97.4942 124.526 97.7408 124.789 97.9088C125.054 98.0768 125.352 98.1608 125.686 98.1608V98.1581Z" fill="#3AC6B4"/>
<defs>
<linearGradient id="paint0_linear_200_976" x1="48.5022" y1="4.12598" x2="51.396" y2="20.071" gradientUnits="userSpaceOnUse">
<stop stop-color="#FFB900"/>
<stop offset="1" stop-color="#FF9500"/>
</linearGradient>
<linearGradient id="paint1_linear_200_976" x1="53.7728" y1="9.18359" x2="56.1161" y2="20.454" gradientUnits="userSpaceOnUse">
<stop stop-color="#FFB900"/>
<stop offset="1" stop-color="#FF9500"/>
</linearGradient>
<linearGradient id="paint2_linear_200_976" x1="98.7469" y1="5.28174" x2="103.371" y2="19.5942" gradientUnits="userSpaceOnUse">
<stop stop-color="#FFB900"/>
<stop offset="1" stop-color="#FF9500"/>
</linearGradient>
<clipPath id="clip0_200_976">
<rect width="166.479" height="19.02" fill="white" transform="translate(0 66.7881)"/>
</clipPath>
</defs>
</svg>
