<svg width="40" height="40" viewBox="0 0 40 40" fill="none" xmlns="http://www.w3.org/2000/svg">
<path d="M0 14C0 6.26801 6.26801 0 14 0H26C33.732 0 40 6.26801 40 14V26C40 33.732 33.732 40 26 40H14C6.26801 40 0 33.732 0 26V14Z" fill="url(#paint0_linear_127_1510)"/>
<path d="M23.9999 19.3334V16.0001C23.9999 15.6465 23.8594 15.3073 23.6094 15.0573C23.3593 14.8072 23.0202 14.6667 22.6666 14.6667C22.313 14.6667 21.9738 14.8072 21.7238 15.0573C21.4737 15.3073 21.3333 15.6465 21.3333 16.0001" stroke="white" stroke-width="1.33333" stroke-linecap="round" stroke-linejoin="round"/>
<path d="M21.3334 18.6666V14.6666C21.3334 14.313 21.1929 13.9738 20.9429 13.7238C20.6928 13.4737 20.3537 13.3333 20.0001 13.3333C19.6465 13.3333 19.3073 13.4737 19.0573 13.7238C18.8072 13.9738 18.6667 14.313 18.6667 14.6666V15.9999" stroke="white" stroke-width="1.33333" stroke-linecap="round" stroke-linejoin="round"/>
<path d="M18.6667 19.0001V16.0001C18.6667 15.6465 18.5262 15.3073 18.2761 15.0573C18.0261 14.8072 17.687 14.6667 17.3333 14.6667C16.9797 14.6667 16.6406 14.8072 16.3905 15.0573C16.1405 15.3073 16 15.6465 16 16.0001V21.3334" stroke="white" stroke-width="1.33333" stroke-linecap="round" stroke-linejoin="round"/>
<path d="M24 17.3333C24 16.9797 24.1405 16.6406 24.3905 16.3905C24.6406 16.1405 24.9797 16 25.3333 16C25.6869 16 26.0261 16.1405 26.2761 16.3905C26.5262 16.6406 26.6667 16.9797 26.6667 17.3333V21.3333C26.6667 22.7478 26.1048 24.1044 25.1046 25.1046C24.1044 26.1048 22.7478 26.6667 21.3333 26.6667H20C18.1333 26.6667 17 26.0933 16.0067 25.1067L13.6067 22.7067C13.3773 22.4526 13.2544 22.1201 13.2634 21.778C13.2724 21.4358 13.4127 21.1102 13.6551 20.8686C13.8976 20.627 14.2237 20.4879 14.5658 20.4801C14.908 20.4723 15.2401 20.5964 15.4933 20.8267L16.6667 22" stroke="white" stroke-width="1.33333" stroke-linecap="round" stroke-linejoin="round"/>
<defs>
<linearGradient id="paint0_linear_127_1510" x1="0" y1="20" x2="40" y2="20" gradientUnits="userSpaceOnUse">
<stop stop-color="#615FFF"/>
<stop offset="1" stop-color="#8E51FF"/>
</linearGradient>
</defs>
</svg>
