<svg width="40" height="40" viewBox="0 0 40 40" fill="none" xmlns="http://www.w3.org/2000/svg">
<path d="M0 14C0 6.26801 6.26801 0 14 0H26C33.732 0 40 6.26801 40 14V26C40 33.732 33.732 40 26 40H14C6.26801 40 0 33.732 0 26V14Z" fill="#F3F4F6"/>
<path d="M24.0002 19.3334V16.0001C24.0002 15.6465 23.8597 15.3073 23.6096 15.0573C23.3596 14.8072 23.0205 14.6667 22.6668 14.6667C22.3132 14.6667 21.9741 14.8072 21.724 15.0573C21.474 15.3073 21.3335 15.6465 21.3335 16.0001" stroke="#99A1AF" stroke-width="1.33333" stroke-linecap="round" stroke-linejoin="round"/>
<path d="M21.3332 18.6666V14.6666C21.3332 14.313 21.1927 13.9738 20.9426 13.7238C20.6926 13.4737 20.3535 13.3333 19.9998 13.3333C19.6462 13.3333 19.3071 13.4737 19.057 13.7238C18.807 13.9738 18.6665 14.313 18.6665 14.6666V15.9999" stroke="#99A1AF" stroke-width="1.33333" stroke-linecap="round" stroke-linejoin="round"/>
<path d="M18.6667 19.0001V16.0001C18.6667 15.6465 18.5262 15.3073 18.2761 15.0573C18.0261 14.8072 17.687 14.6667 17.3333 14.6667C16.9797 14.6667 16.6406 14.8072 16.3905 15.0573C16.1405 15.3073 16 15.6465 16 16.0001V21.3334" stroke="#99A1AF" stroke-width="1.33333" stroke-linecap="round" stroke-linejoin="round"/>
<path d="M24.0002 17.3333C24.0002 16.9797 24.1407 16.6406 24.3908 16.3905C24.6408 16.1405 24.9799 16 25.3336 16C25.6872 16 26.0263 16.1405 26.2764 16.3905C26.5264 16.6406 26.6669 16.9797 26.6669 17.3333V21.3333C26.6669 22.7478 26.105 24.1044 25.1048 25.1046C24.1046 26.1048 22.7481 26.6667 21.3336 26.6667H20.0002C18.1336 26.6667 17.0002 26.0933 16.0069 25.1067L13.6069 22.7067C13.3775 22.4526 13.2546 22.1201 13.2636 21.778C13.2727 21.4358 13.4129 21.1102 13.6554 20.8686C13.8978 20.627 14.2239 20.4879 14.5661 20.4801C14.9083 20.4723 15.2403 20.5964 15.4936 20.8267L16.6669 22" stroke="#99A1AF" stroke-width="1.33333" stroke-linecap="round" stroke-linejoin="round"/>
</svg>
