<svg width="205" height="36" viewBox="0 0 205 36" fill="none" xmlns="http://www.w3.org/2000/svg">
<path d="M44.2271 24.1128C44.1396 24.1925 44.2523 24.3273 44.347 24.2564C45.5993 23.3133 46.7965 22.4507 48.2168 21.6787C48.3611 21.6006 48.3359 21.3862 48.1774 21.3436C43.6956 20.1174 41.7934 23.7549 37.9535 23.2912C37.8699 23.281 37.8407 23.1737 37.9078 23.1233C38.6475 22.5634 39.388 22.1203 40.0481 21.5068C41.8438 19.8383 43.2492 17.8891 44.5741 15.8405C44.8533 15.4084 45.1119 15.0086 45.4952 14.6956C45.6837 14.5418 45.966 14.6759 45.9747 14.9187C46.0236 16.2427 45.2492 18.1138 44.6695 19.325C44.6277 19.4117 44.7295 19.4961 44.8083 19.4409C46.3154 18.3851 46.8927 16.2947 47.3461 14.4551C47.5851 13.4852 48.1056 12.5611 48.9313 11.909C49.1466 11.7394 49.4573 11.9208 49.4092 12.1905L48.8619 15.2665C48.6245 16.6006 48.2381 17.8063 47.582 18.9575C47.5275 19.0521 47.6514 19.1483 47.7286 19.0711C48.5953 18.2053 49.2129 17.1731 49.671 16.0171L50.6624 13.5168C50.9431 12.8095 51.3627 12.2047 52.0046 11.7497C52.2128 11.6022 52.4967 11.7741 52.4675 12.0273C52.2459 13.9568 51.4415 16.3948 50.6963 18.0823C50.6561 18.1737 50.7688 18.2557 50.8437 18.1895C52.3493 16.8522 54.6284 14.7997 56.5424 15.0536C56.7727 15.0843 56.88 15.3579 56.7309 15.5361C56.5677 15.7309 56.3918 15.8989 56.197 16.0558C54.492 17.4254 52.8666 18.803 51.4778 20.4943L47.9708 24.7657C47.011 25.9343 46.1514 27.1731 45.026 28.1777C43.8478 29.2303 42.3052 29.4834 40.7973 29.8383C36.7729 30.7861 33.2469 32.8922 30.2896 35.9012C30.2328 35.9595 30.1326 35.9225 30.1287 35.8412C30.0183 33.5396 30.4402 31.3593 31.1389 29.2303C31.6949 27.5366 32.6641 26.0723 34.0797 24.996C36.1696 23.4071 38.3817 24.1602 40.362 23.605C42.9464 22.8812 44.8265 21.0771 47.4802 21.5486C47.6529 21.5793 47.6876 21.8112 47.5307 21.89C46.3312 22.4964 45.2492 23.1792 44.2255 24.1136L44.2271 24.1128Z" fill="#088278"/>
<path d="M12.8293 24.3242C11.7954 23.3929 10.6077 22.5784 9.28435 21.8853C9.13372 21.8064 9.16369 21.5809 9.33088 21.547C11.1605 21.1772 13.1431 22.1684 14.789 22.9577C16.1281 23.6003 17.5232 23.8739 19.0224 23.8897C21.3954 23.9141 23.4569 24.9731 24.669 26.9965C26.0539 29.3068 27.0381 33.0909 26.9048 35.9122C26.9009 35.9934 26.8015 36.0297 26.7447 35.9714C24.1099 33.2699 20.9759 31.3341 17.386 30.1805C15.0217 29.4211 12.9483 29.6814 11.1006 27.4341L6.66372 22.0398C4.75049 19.7129 2.77496 17.6218 0.332557 15.8279C0.230823 15.7538 0.131455 15.63 0.0462823 15.4975C-0.069647 15.3169 0.0439175 15.0717 0.256849 15.0473C2.14563 14.8344 4.6456 17.0698 6.06278 18.3362C6.13928 18.404 6.25284 18.318 6.20868 18.2258C5.31752 16.4051 4.64324 14.0553 4.24971 12.0414C4.19845 11.7781 4.49418 11.5912 4.71343 11.7457C6.86719 13.2636 6.70709 16.9626 9.1282 19.0293C9.20943 19.0987 9.32457 18.9977 9.267 18.9071C8.66606 17.9687 8.25991 16.9539 8.05093 15.8279L7.36639 12.1487C7.31671 11.8798 7.62743 11.6913 7.84115 11.8624C8.46417 12.3624 8.98546 12.9774 9.21101 13.7005L10.2268 16.9586C10.547 17.9869 11.1574 18.8306 12.0651 19.4724C12.1447 19.5284 12.2473 19.4409 12.2031 19.3541C11.6857 18.3433 10.7536 16.1575 10.8427 14.8998C10.86 14.6554 11.1566 14.5403 11.3372 14.7066C11.6432 14.9881 11.8829 15.2625 12.095 15.6047C13.2425 17.4578 14.4862 19.1649 16.0043 20.7435C16.8868 21.6606 17.8655 22.3497 18.9191 23.1311C18.9885 23.1832 18.957 23.2944 18.8702 23.3007C17.6328 23.3914 16.5161 23.0972 15.4318 22.6446L12.8813 21.5801C11.5209 21.0124 10.0651 20.9154 8.62821 21.3357C8.47127 21.3814 8.45077 21.5951 8.59509 21.6716C10.099 22.4672 11.334 23.4434 12.7094 24.4693C12.8048 24.5402 12.9168 24.4046 12.8285 24.3242H12.8293Z" fill="#088278"/>
<path d="M29.6689 21.8112C32.2027 18.3086 35.9748 20.0804 38.1617 19.3542C38.9038 19.1074 39.209 18.4024 38.9306 17.6872C38.3975 16.3184 39.6396 16.2845 39.3265 15.6923C39.1246 15.3106 38.3722 15.5164 37.9748 15.242C38.3478 15.2365 40.0047 14.7129 39.5962 14.1783C39.3359 13.8377 39.1956 13.2834 39.4992 12.9309C39.7602 12.6289 40.6679 12.405 40.7019 11.8648C40.7121 11.7048 40.6135 11.5384 40.4661 11.4122C39.4345 10.5243 38.168 9.18465 38.0923 7.73694C37.9543 5.09777 36.765 2.38133 34.2895 1.19067C32.743 0.446309 31.0143 0.257853 29.3353 0.622937C27.6563 0.98802 26.3108 1.87589 25.1027 3.06024C25.3053 2.59186 25.7628 2.3971 26.0411 1.99811C28.8905 -0.658403 33.7548 -0.69231 36.5174 2.0541C37.8809 3.40956 38.6577 5.21132 38.8178 7.12189C38.9156 8.29126 39.3383 9.24379 40.1553 10.0717C40.4495 10.3698 40.7232 10.7183 41.0654 10.977C41.5749 11.3617 41.6159 11.987 41.2421 12.4807C40.955 12.8599 40.552 13.0208 40.1269 13.2526C39.914 13.3685 40.0181 13.7691 40.1372 13.9339C40.6222 14.6065 40.2192 14.8462 39.8935 15.3556C40.2602 15.7475 40.1798 16.2923 39.7886 16.6141C39.4692 16.8774 39.5071 17.2898 39.623 17.6723C39.8304 18.3543 39.7389 19.1357 39.1317 19.5749C38.5426 20.0015 37.7902 20.1577 37.0584 20.1584L34.3786 20.1608C32.8991 20.1616 31.5852 20.8468 30.6381 21.9697C29.7572 22.9514 29.2532 24.1129 28.922 25.3974C28.3913 27.457 28.5372 29.5229 28.993 31.6282C28.1563 29.4992 27.9244 27.1762 28.3313 24.91C28.5372 23.7628 28.982 22.7637 29.6689 21.8135V21.8112Z" fill="#088278"/>
<path d="M8.81732 5.40766C9.73686 4.87305 10.7794 4.87778 11.796 5.05046C15.1248 5.77748 17.904 7.63443 21.3211 5.80902C21.9047 5.49676 22.4142 5.14587 22.9828 4.78789C24.3873 3.90317 26.0348 3.45529 27.6917 3.73206C29.3155 4.00331 30.9906 5.02129 32.642 5.00315C34.1522 4.98659 35.1743 3.90081 35.3115 2.40026C35.5481 3.78411 34.6893 5.00552 33.3628 5.37297C31.8912 5.78063 30.172 5.20265 28.7564 4.74846C27.0718 4.20754 25.3597 4.33213 23.8313 5.21448L22.1342 6.19381C20.4528 7.16369 18.5664 7.43415 16.6721 6.97445C14.6075 6.47374 13.2794 5.62529 11.2763 5.20186C10.4261 5.01025 9.65169 5.16874 8.81653 5.40766H8.81732Z" fill="url(#paint0_linear_200_581)"/>
<path d="M18.7723 8.76437C16.1249 8.75885 13.964 7.77715 11.8986 6.10943C12.8205 6.63616 13.7069 7.1416 14.7235 7.55715C17.6524 8.75491 20.9198 8.49943 23.6082 6.83487C25.1287 5.89338 26.5616 5.02917 28.4323 5.45496C27.5269 5.51568 26.6705 5.55511 25.8692 5.988C25.1169 6.39409 24.445 6.85379 23.7281 7.31586C22.2289 8.28101 20.5664 8.76831 18.7731 8.76437H18.7723Z" fill="url(#paint1_linear_200_581)"/>
<path d="M52.5007 5.67575C49.5212 4.53635 48.1261 6.84355 45.7137 7.5335C44.5213 7.87414 43.362 7.5816 42.4953 6.69767C41.0087 5.18293 40.4503 3.39536 38.1964 3.08705C40.7169 2.84813 41.9046 5.67181 43.3115 6.68663C45.2933 8.11542 47.2255 6.11417 49.1261 5.4873C50.2381 5.11827 51.462 5.02996 52.5015 5.67575H52.5007Z" fill="url(#paint2_linear_200_581)"/>
<g clip-path="url(#clip0_200_581)">
<path d="M64.7998 12.6001C64.7998 7.79821 68.182 4.6486 72.3613 4.6486C75.1802 4.6486 78.0572 6.08652 79.0481 9.08106L77.7846 9.58621C76.8713 7.27246 74.7525 5.95084 72.3807 5.95084C69.0954 5.95084 66.2765 8.43903 66.2765 12.6183C66.2765 17.0508 69.4455 19.1501 72.5939 19.1501C75.7422 19.1501 77.6865 17.0508 78.3867 14.5626L79.6308 15.0096C78.6786 18.1204 76.2874 20.4523 72.457 20.4523C67.9688 20.4535 64.7998 17.2264 64.7998 12.6001Z" fill="#088278"/>
<path d="M81.8295 9.39239H83.0929V11.608H83.1705C83.7144 10.1107 85.076 9.08106 86.6508 9.08106C87.0203 9.08106 87.4866 9.13921 87.8755 9.29427V10.7128C87.4866 10.5577 86.8846 10.4596 86.5539 10.4596C84.2595 10.4596 83.1329 12.7346 83.1329 14.9115V20.1216H81.8307V9.39239H81.8295Z" fill="#088278"/>
<path d="M88.6338 17.654C88.6338 15.6322 90.4605 14.7964 92.5017 14.3688C94.4848 13.9605 95.9033 13.9218 95.9033 12.542C95.9033 11.3367 94.8336 10.2089 93.1813 10.2089C91.7434 10.2089 90.6931 11.0835 90.2655 12.4645L89.002 12.0175C89.6441 9.95689 91.4902 9.08227 93.2782 9.08227C95.2225 9.08227 97.2637 10.1132 97.2637 12.6595V16.7612C97.2637 18.5492 97.3994 19.2882 97.6138 20.124H96.2922C96.0983 19.3657 96.039 18.7249 96.039 17.889H96.0002C95.3194 19.3475 93.9978 20.4548 92.0341 20.4548C90.2074 20.4548 88.6326 19.5414 88.6326 17.6552L88.6338 17.654ZM92.2679 19.3839C94.5223 19.3839 95.9227 17.2652 95.9227 15.8261V14.3675C95.3206 14.8339 94.8143 15.0096 93.3764 15.2809C92.1323 15.5147 90.0523 15.9617 90.0523 17.5947C90.0523 18.6837 90.9075 19.3827 92.2679 19.3827V19.3839Z" fill="#088278"/>
<path d="M100.589 9.39239H101.852V11.453H101.891C102.746 9.78124 104.147 9.08106 105.682 9.08106C107.587 9.08106 109.59 10.1507 109.59 13.3972V20.1228H108.287V13.9799C108.287 11.2967 106.908 10.2864 105.333 10.2864C103.137 10.2864 101.892 12.2307 101.892 14.135V20.1228H100.59V9.39239H100.589Z" fill="#088278"/>
<path d="M113.575 4.49355C114.177 4.49355 114.645 4.97931 114.645 5.5632C114.645 6.18585 114.178 6.67162 113.575 6.67162C112.933 6.67162 112.467 6.18585 112.467 5.5632C112.467 4.98052 112.933 4.49355 113.575 4.49355ZM112.894 9.39239H114.196V20.1228H112.894V9.39239Z" fill="#088278"/>
<path d="M116.822 14.777C116.822 11.4336 119.037 9.08106 122.206 9.08106C125.375 9.08106 127.552 11.4336 127.552 14.777C127.552 18.1204 125.356 20.4535 122.206 20.4535C119.057 20.4535 116.822 18.1204 116.822 14.777ZM122.206 19.2482C124.559 19.2482 126.172 17.4021 126.172 14.777C126.172 12.1519 124.559 10.2864 122.206 10.2864C119.854 10.2864 118.221 12.1531 118.221 14.777C118.221 17.4009 119.854 19.2482 122.206 19.2482Z" fill="#088278"/>
<path d="M130.293 4.95993H135.736C138.866 4.95993 140.557 6.82667 140.557 8.90662C140.557 10.3445 139.741 11.8806 137.835 12.3857V12.4245C140.051 12.8327 141.063 14.4075 141.063 16.0599C141.063 18.4511 138.983 20.1228 136.397 20.1228H130.293V4.95993ZM135.523 11.8806C137.758 11.8806 139.1 10.7334 139.1 9.10044C139.1 7.33182 137.506 6.2234 135.387 6.2234H131.694V11.8806H135.523ZM135.97 18.8594C138.186 18.8594 139.586 17.6928 139.586 16.0405C139.586 14.3881 138.05 13.1053 135.834 13.1053H131.694V18.8594H135.97Z" fill="#088278"/>
<path d="M143.026 17.654C143.026 15.6322 144.853 14.7964 146.894 14.3688C148.877 13.9605 150.296 13.9218 150.296 12.542C150.296 11.3367 149.226 10.2089 147.574 10.2089C146.136 10.2089 145.086 11.0835 144.658 12.4645L143.394 12.0175C144.037 9.95689 145.883 9.08227 147.671 9.08227C149.615 9.08227 151.656 10.1132 151.656 12.6595V16.7612C151.656 18.5492 151.792 19.2882 152.006 20.124H150.685C150.491 19.3657 150.431 18.7249 150.431 17.889H150.393C149.712 19.3475 148.39 20.4548 146.427 20.4548C144.6 20.4548 143.025 19.5414 143.025 17.6552L143.026 17.654ZM146.662 19.3839C148.917 19.3839 150.316 17.2652 150.316 15.8261V14.3675C149.714 14.8339 149.208 15.0096 147.77 15.2809C146.526 15.5147 144.446 15.9617 144.446 17.5947C144.446 18.6837 145.301 19.3827 146.662 19.3827V19.3839Z" fill="#088278"/>
<path d="M154.981 4.57107H156.284V20.1228H154.981V4.57107Z" fill="#088278"/>
<path d="M158.928 17.654C158.928 15.6322 160.755 14.7964 162.796 14.3688C164.779 13.9605 166.198 13.9218 166.198 12.542C166.198 11.3367 165.128 10.2089 163.476 10.2089C162.038 10.2089 160.987 11.0835 160.56 12.4645L159.296 12.0175C159.938 9.95689 161.785 9.08227 163.573 9.08227C165.517 9.08227 167.558 10.1132 167.558 12.6595V16.7612C167.558 18.5492 167.694 19.2882 167.908 20.124H166.586C166.393 19.3657 166.333 18.7249 166.333 17.889H166.295C165.614 19.3475 164.292 20.4548 162.328 20.4548C160.502 20.4548 158.927 19.5414 158.927 17.6552L158.928 17.654ZM162.563 19.3839C164.819 19.3839 166.218 17.2652 166.218 15.8261V14.3675C165.616 14.8339 165.11 15.0096 163.672 15.2809C162.428 15.5147 160.348 15.9617 160.348 17.5947C160.348 18.6837 161.203 19.3827 162.563 19.3827V19.3839Z" fill="#088278"/>
<path d="M170.883 9.39239H172.147V11.453H172.185C173.041 9.78124 174.441 9.08106 175.976 9.08106C177.881 9.08106 179.884 10.1507 179.884 13.3972V20.1228H178.582V13.9799C178.582 11.2967 177.202 10.2864 175.627 10.2864C173.431 10.2864 172.187 12.2307 172.187 14.135V20.1228H170.884V9.39239H170.883Z" fill="#088278"/>
<path d="M182.354 14.777C182.354 11.3754 184.57 9.08106 187.7 9.08106C189.605 9.08106 191.471 9.95568 192.326 12.1325L191.063 12.6183C190.519 11.1404 189.255 10.2852 187.642 10.2852C185.25 10.2852 183.754 12.2295 183.754 14.7758C183.754 17.459 185.407 19.247 187.74 19.247C189.665 19.247 190.967 18.0417 191.588 16.4669L192.774 16.8945C191.938 19.2276 190.013 20.4523 187.701 20.4523C184.571 20.4523 182.355 18.158 182.355 14.7758L182.354 14.777Z" fill="#088278"/>
<path d="M194.173 14.777C194.173 11.4336 196.37 9.08106 199.442 9.08106C201.483 9.08106 204.341 10.1701 204.341 14.4657V15.0677H195.574C195.632 17.6528 197.265 19.247 199.52 19.247C201.368 19.247 202.651 18.0417 203.253 16.5444L204.497 16.9914C203.68 19.1876 201.775 20.4511 199.462 20.4511C196.43 20.4511 194.175 18.1761 194.175 14.7746L194.173 14.777ZM202.921 13.7473C202.863 11.201 201.035 10.3264 199.402 10.3264C197.36 10.3264 195.942 11.7449 195.65 13.7473H202.921Z" fill="#088278"/>
</g>
<path d="M95.9019 31.4405V26.5206H98.9905V27.1684H96.6522V28.6345H98.8228V29.2789H96.6522V30.7939H99.0098V31.4405H95.9008H95.9019Z" fill="#088278"/>
<path d="M100.643 31.4405V26.5206H101.393V28.0924L101.38 29.2153L101.393 29.5846V31.4405H100.643ZM101.177 30.1324V29.3801C101.285 29.2153 101.391 29.0596 101.498 28.9141C101.604 28.7686 101.715 28.6254 101.832 28.4845C101.949 28.3436 102.072 28.1981 102.204 28.0492L103.58 26.5206H104.534L102.45 28.822L102.4 28.8118L101.175 30.1324H101.177ZM103.666 31.4405L101.996 29.0334L102.467 28.4561L104.555 31.4405H103.666Z" fill="#088278"/>
<path d="M105.579 31.4405L107.325 26.5206H108.246L110.025 31.4405H109.211L108.255 28.7038C108.181 28.4811 108.099 28.2197 108.01 27.9185C107.922 27.6173 107.819 27.2548 107.702 26.832H107.854C107.742 27.2593 107.642 27.6253 107.553 27.9299C107.464 28.2345 107.385 28.4924 107.317 28.7038L106.392 31.4405H105.578H105.579ZM106.525 30.1427V29.5153H109.077V30.1427H106.525Z" fill="#088278"/>
<path d="M110.58 27.1684V26.5206H114.39V27.1684H112.865V31.4405H112.111V27.1684H110.58Z" fill="#088278"/>
<path d="M115.905 31.4405V26.5206H118.994V27.1684H116.655V28.6345H118.826V29.2789H116.655V30.7939H119.013V31.4405H115.904H115.905Z" fill="#088278"/>
<path d="M120.646 31.4405V26.5206H122.404C122.782 26.5206 123.097 26.5865 123.35 26.7172C123.602 26.8479 123.79 27.0298 123.916 27.2639C124.041 27.4969 124.104 27.7651 124.104 28.0663C124.104 28.3674 124.041 28.6356 123.915 28.8641C123.789 29.0925 123.6 29.2687 123.347 29.3937C123.094 29.5187 122.778 29.5824 122.399 29.5824H121.078V28.938H122.326C122.567 28.938 122.762 28.9027 122.911 28.8334C123.059 28.7641 123.168 28.6641 123.238 28.5345C123.309 28.4049 123.344 28.2481 123.344 28.0663C123.344 27.8844 123.309 27.7219 123.238 27.5878C123.168 27.4537 123.058 27.3491 122.909 27.2752C122.759 27.2014 122.563 27.165 122.319 27.165H121.398V31.4405H120.647H120.646ZM123.435 31.4405L122.246 29.2187H123.079L124.287 31.4405H123.435Z" fill="#088278"/>
<path d="M126.44 26.5206V31.4405H125.69V26.5206H126.44Z" fill="#088278"/>
<path d="M128.202 31.4405V26.5206H129.068L130.915 29.4494C130.976 29.546 131.045 29.6619 131.123 29.796C131.2 29.9301 131.28 30.0813 131.366 30.2506C131.452 30.42 131.536 30.6018 131.62 30.8007H131.528C131.509 30.6132 131.494 30.4279 131.484 30.2449C131.474 30.0608 131.467 29.8892 131.463 29.7278C131.458 29.5676 131.456 29.4312 131.456 29.3221V26.5217H132.216V31.4417H131.347L129.691 28.8232C129.604 28.68 129.516 28.5356 129.433 28.3902C129.348 28.2447 129.255 28.0776 129.153 27.8867C129.051 27.6969 128.926 27.465 128.779 27.1911H128.898C128.909 27.4332 128.919 27.6594 128.93 27.8696C128.942 28.0799 128.95 28.2663 128.955 28.4277C128.961 28.5891 128.963 28.7186 128.963 28.8152V31.4405H128.203H128.202Z" fill="#088278"/>
<path d="M133.601 31.4405L135.347 26.5206H136.268L138.047 31.4405H137.233L136.277 28.7038C136.203 28.4811 136.121 28.2197 136.033 27.9185C135.944 27.6173 135.841 27.2548 135.724 26.832H135.876C135.764 27.2593 135.664 27.6253 135.575 27.9299C135.486 28.2345 135.407 28.4924 135.339 28.7038L134.414 31.4405H133.6H133.601ZM134.547 30.1427V29.5153H137.099V30.1427H134.547Z" fill="#088278"/>
<path d="M142.965 31.4405V26.5206H144.723C145.1 26.5206 145.415 26.5911 145.668 26.732C145.921 26.8729 146.109 27.0639 146.235 27.3037C146.36 27.5435 146.423 27.8151 146.423 28.1197C146.423 28.4243 146.36 28.6959 146.234 28.9368C146.107 29.1778 145.917 29.3687 145.666 29.5085C145.413 29.6483 145.097 29.7176 144.717 29.7176H143.515V29.08H144.643C144.885 29.08 145.081 29.038 145.229 28.955C145.379 28.8709 145.488 28.7573 145.557 28.6118C145.626 28.4663 145.661 28.3027 145.661 28.1197C145.661 27.9367 145.627 27.7696 145.557 27.6264C145.488 27.4821 145.378 27.3696 145.228 27.2877C145.078 27.2059 144.88 27.1661 144.638 27.1661H143.715V31.4417H142.965V31.4405Z" fill="#088278"/>
<path d="M150.011 31.5065C149.588 31.5065 149.209 31.4053 148.873 31.2042C148.539 31.003 148.275 30.7132 148.083 30.3359C147.891 29.9585 147.796 29.5073 147.796 28.9834C147.796 28.4595 147.892 28.006 148.083 27.6276C148.275 27.2502 148.539 26.9604 148.873 26.757C149.208 26.5547 149.588 26.4535 150.011 26.4535C150.435 26.4535 150.813 26.5547 151.146 26.757C151.478 26.9593 151.741 27.2491 151.933 27.6276C152.124 28.0049 152.221 28.4572 152.221 28.9834C152.221 29.5096 152.124 29.9585 151.933 30.3359C151.74 30.7132 151.478 31.003 151.146 31.2042C150.814 31.4053 150.435 31.5065 150.011 31.5065ZM150.011 30.82C150.29 30.82 150.54 30.7507 150.761 30.6109C150.982 30.4711 151.156 30.2643 151.284 29.9904C151.412 29.7165 151.477 29.3812 151.477 28.9846C151.477 28.5879 151.412 28.247 151.284 27.9731C151.156 27.6992 150.982 27.4923 150.761 27.3525C150.54 27.2127 150.29 27.1434 150.011 27.1434C149.733 27.1434 149.479 27.2139 149.258 27.3548C149.036 27.4957 148.861 27.7026 148.733 27.9776C148.605 28.2515 148.54 28.5879 148.54 28.9868C148.54 29.3857 148.605 29.7176 148.733 29.9904C148.861 30.2631 149.037 30.47 149.258 30.6109C149.48 30.7518 149.73 30.8223 150.011 30.8223V30.82Z" fill="#088278"/>
<path d="M153.36 27.1684V26.5206H157.169V27.1684H155.645V31.4405H154.891V27.1684H153.36Z" fill="#088278"/>
<path d="M158.684 31.4405V26.5206H161.772V27.1684H159.434V28.6345H161.604V29.2789H159.434V30.7939H161.791V31.4405H158.682H158.684Z" fill="#088278"/>
<path d="M165.486 31.5065C165.043 31.5065 164.653 31.4042 164.319 31.1996C163.985 30.995 163.723 30.7041 163.535 30.3268C163.346 29.9494 163.254 29.5017 163.254 28.9845C163.254 28.4674 163.349 28.0094 163.538 27.6321C163.727 27.2548 163.989 26.9638 164.32 26.7604C164.651 26.557 165.03 26.4547 165.452 26.4547C165.715 26.4547 165.962 26.4933 166.191 26.5717C166.42 26.6502 166.626 26.7615 166.807 26.9047C166.988 27.0491 167.138 27.2207 167.255 27.4196C167.372 27.6185 167.451 27.8378 167.49 28.0753H166.72C166.675 27.9321 166.615 27.8026 166.538 27.6878C166.461 27.573 166.369 27.4741 166.263 27.3923C166.156 27.3105 166.036 27.2491 165.9 27.2059C165.765 27.1627 165.618 27.1411 165.457 27.1411C165.18 27.1411 164.932 27.2116 164.711 27.3525C164.49 27.4935 164.316 27.7003 164.187 27.9753C164.059 28.2492 163.995 28.5845 163.995 28.9811C163.995 29.3778 164.059 29.7119 164.187 29.9847C164.316 30.2574 164.492 30.4654 164.716 30.6075C164.94 30.7495 165.196 30.82 165.486 30.82C165.749 30.82 165.979 30.7666 166.177 30.6598C166.373 30.5529 166.526 30.4006 166.635 30.204C166.743 30.0074 166.798 29.7744 166.798 29.5051L166.992 29.538H165.595V28.9175H167.531V29.4823C167.531 29.896 167.443 30.254 167.266 30.5575C167.089 30.8598 166.848 31.0939 166.539 31.2587C166.232 31.4235 165.88 31.5065 165.482 31.5065H165.486Z" fill="#088278"/>
<path d="M171.185 31.5065C170.761 31.5065 170.383 31.4053 170.047 31.2042C169.713 31.003 169.449 30.7132 169.257 30.3359C169.065 29.9585 168.969 29.5073 168.969 28.9834C168.969 28.4595 169.066 28.006 169.257 27.6276C169.449 27.2502 169.713 26.9604 170.047 26.757C170.382 26.5547 170.761 26.4535 171.185 26.4535C171.609 26.4535 171.987 26.5547 172.32 26.757C172.652 26.9593 172.915 27.2491 173.107 27.6276C173.298 28.0049 173.394 28.4572 173.394 28.9834C173.394 29.5096 173.298 29.9585 173.107 30.3359C172.914 30.7132 172.652 31.003 172.32 31.2042C171.988 31.4053 171.609 31.5065 171.185 31.5065ZM171.185 30.82C171.464 30.82 171.714 30.7507 171.935 30.6109C172.156 30.4711 172.33 30.2643 172.458 29.9904C172.586 29.7165 172.651 29.3812 172.651 28.9846C172.651 28.5879 172.586 28.247 172.458 27.9731C172.33 27.6992 172.156 27.4923 171.935 27.3525C171.714 27.2127 171.464 27.1434 171.185 27.1434C170.907 27.1434 170.653 27.2139 170.432 27.3548C170.209 27.4957 170.035 27.7026 169.907 27.9776C169.779 28.2515 169.714 28.5879 169.714 28.9868C169.714 29.3857 169.779 29.7176 169.907 29.9904C170.035 30.2631 170.211 30.47 170.432 30.6109C170.654 30.7518 170.904 30.8223 171.185 30.8223V30.82Z" fill="#088278"/>
<defs>
<linearGradient id="paint0_linear_200_581" x1="8.81653" y1="2.40026" x2="10.4929" y2="11.682" gradientUnits="userSpaceOnUse">
<stop stop-color="#FFB900"/>
<stop offset="1" stop-color="#FF9500"/>
</linearGradient>
<linearGradient id="paint1_linear_200_581" x1="11.8986" y1="5.34335" x2="13.2562" y2="11.9045" gradientUnits="userSpaceOnUse">
<stop stop-color="#FFB900"/>
<stop offset="1" stop-color="#FF9500"/>
</linearGradient>
<linearGradient id="paint2_linear_200_581" x1="38.1964" y1="3.07277" x2="40.8765" y2="11.4091" gradientUnits="userSpaceOnUse">
<stop stop-color="#FFB900"/>
<stop offset="1" stop-color="#FF9500"/>
</linearGradient>
<clipPath id="clip0_200_581">
<rect width="139.696" height="15.96" fill="white" transform="translate(64.7998 4.49355)"/>
</clipPath>
</defs>
</svg>
