<svg width="54" height="54" viewBox="0 0 54 54" fill="none" xmlns="http://www.w3.org/2000/svg">
<g filter="url(#filter0_dd_127_1432)">
<path d="M3 18C3 9.16344 10.1634 2 19 2H35C43.8366 2 51 9.16344 51 18V34C51 42.8366 43.8366 50 35 50H19C10.1634 50 3 42.8366 3 34V18Z" fill="url(#paint0_linear_127_1432)" shape-rendering="crispEdges"/>
<path d="M23.5834 32.6666C25.1739 33.4825 27.0035 33.7035 28.7425 33.2898C30.4815 32.876 32.0155 31.8548 33.0682 30.4101C34.1209 28.9654 34.6229 27.1922 34.4839 25.4101C34.3449 23.628 33.5739 21.9541 32.3099 20.6901C31.0459 19.4261 29.3721 18.6552 27.5899 18.5161C25.8078 18.3771 24.0346 18.8792 22.5899 19.9318C21.1452 20.9845 20.124 22.5185 19.7103 24.2576C19.2965 25.9966 19.5175 27.8261 20.3334 29.4166L18.6667 34.3333L23.5834 32.6666Z" stroke="white" stroke-width="1.66667" stroke-linecap="round" stroke-linejoin="round"/>
</g>
<defs>
<filter id="filter0_dd_127_1432" x="0" y="0" width="54" height="54" filterUnits="userSpaceOnUse" color-interpolation-filters="sRGB">
<feFlood flood-opacity="0" result="BackgroundImageFix"/>
<feColorMatrix in="SourceAlpha" type="matrix" values="0 0 0 0 0 0 0 0 0 0 0 0 0 0 0 0 0 0 127 0" result="hardAlpha"/>
<feMorphology radius="1" operator="erode" in="SourceAlpha" result="effect1_dropShadow_127_1432"/>
<feOffset dy="1"/>
<feGaussianBlur stdDeviation="1"/>
<feComposite in2="hardAlpha" operator="out"/>
<feColorMatrix type="matrix" values="0 0 0 0 0 0 0 0 0 0 0 0 0 0 0 0 0 0 0.1 0"/>
<feBlend mode="normal" in2="BackgroundImageFix" result="effect1_dropShadow_127_1432"/>
<feColorMatrix in="SourceAlpha" type="matrix" values="0 0 0 0 0 0 0 0 0 0 0 0 0 0 0 0 0 0 127 0" result="hardAlpha"/>
<feOffset dy="1"/>
<feGaussianBlur stdDeviation="1.5"/>
<feComposite in2="hardAlpha" operator="out"/>
<feColorMatrix type="matrix" values="0 0 0 0 0 0 0 0 0 0 0 0 0 0 0 0 0 0 0.1 0"/>
<feBlend mode="normal" in2="effect1_dropShadow_127_1432" result="effect2_dropShadow_127_1432"/>
<feBlend mode="normal" in="SourceGraphic" in2="effect2_dropShadow_127_1432" result="shape"/>
</filter>
<linearGradient id="paint0_linear_127_1432" x1="3" y1="2" x2="51" y2="50" gradientUnits="userSpaceOnUse">
<stop stop-color="#FFB900"/>
<stop offset="1" stop-color="#FF9500"/>
</linearGradient>
</defs>
</svg>
