<svg width="40" height="40" viewBox="0 0 40 40" fill="none" xmlns="http://www.w3.org/2000/svg">
<path d="M0 14C0 6.26801 6.26801 0 14 0H26C33.732 0 40 6.26801 40 14V26C40 33.732 33.732 40 26 40H14C6.26801 40 0 33.732 0 26V14Z" fill="#F3F4F6"/>
<path d="M17.2666 25.3334C18.539 25.9862 20.0026 26.1629 21.3938 25.832C22.785 25.501 24.0123 24.684 24.8544 23.5282C25.6966 22.3725 26.0982 20.9539 25.987 19.5282C25.8758 18.1025 25.259 16.7634 24.2478 15.7522C23.2366 14.7411 21.8975 14.1243 20.4718 14.0131C19.0461 13.9018 17.6276 14.3035 16.4718 15.1456C15.316 15.9877 14.499 17.215 14.1681 18.6062C13.8371 19.9974 14.0139 21.4611 14.6666 22.7334L13.3333 26.6668L17.2666 25.3334Z" stroke="#99A1AF" stroke-width="1.33333" stroke-linecap="round" stroke-linejoin="round"/>
</svg>
