<svg width="56" height="56" viewBox="0 0 56 56" fill="none" xmlns="http://www.w3.org/2000/svg">
<mask id="path-1-inside-1_309_126" fill="white">
<path d="M0 28C0 12.536 12.536 0 28 0C43.464 0 56 12.536 56 28C56 43.464 43.464 56 28 56C12.536 56 0 43.464 0 28Z"/>
</mask>
<path d="M0 28C0 12.536 12.536 0 28 0C43.464 0 56 12.536 56 28C56 43.464 43.464 56 28 56C12.536 56 0 43.464 0 28Z" fill="white" fill-opacity="0.2"/>
<path d="M0 28M56 28M56 28M0 28M28 0M56 28M28 56M0 28M28 56V54C13.6406 54 2 42.3594 2 28H0H-2C-2 44.5685 11.4315 58 28 58V56ZM56 28H54C54 42.3594 42.3594 54 28 54V56V58C44.5685 58 58 44.5685 58 28H56ZM28 0V2C42.3594 2 54 13.6406 54 28H56H58C58 11.4315 44.5685 -2 28 -2V0ZM28 0V-2C11.4315 -2 -2 11.4315 -2 28H0H2C2 13.6406 13.6406 2 28 2V0Z" fill="white" fill-opacity="0.6" mask="url(#path-1-inside-1_309_126)"/>
<path d="M24 20.5L35.6667 28L24 35.5V20.5Z" fill="white" stroke="white" stroke-width="1.66667" stroke-linecap="round" stroke-linejoin="round"/>
</svg>
