<svg width="13" height="13" viewBox="0 0 13 13" fill="none" xmlns="http://www.w3.org/2000/svg">
<g clip-path="url(#clip0_52_2388)">
<path d="M5.87771 1.17042C5.90006 1.12526 5.93458 1.08725 5.97739 1.06068C6.02019 1.0341 6.06957 1.02002 6.11996 1.02002C6.17034 1.02002 6.21972 1.0341 6.26253 1.06068C6.30533 1.08725 6.33986 1.12526 6.36221 1.17042L7.54031 3.5567C7.61792 3.71377 7.73248 3.84965 7.87416 3.95269C8.01585 4.05574 8.18042 4.12286 8.35375 4.1483L10.9884 4.53386C11.0383 4.5411 11.0852 4.56215 11.1238 4.59465C11.1624 4.62715 11.1911 4.6698 11.2067 4.71777C11.2223 4.76574 11.2242 4.81712 11.2121 4.86609C11.2 4.91507 11.1745 4.95969 11.1384 4.9949L9.23299 6.85028C9.10734 6.97273 9.01332 7.12389 8.95904 7.29073C8.90476 7.45758 8.89183 7.63511 8.92138 7.80806L9.3712 10.4295C9.38002 10.4794 9.37463 10.5307 9.35565 10.5777C9.33667 10.6247 9.30487 10.6654 9.26387 10.6952C9.22287 10.7249 9.17433 10.7426 9.12379 10.7461C9.07324 10.7496 9.02272 10.7389 8.97799 10.7151L6.62282 9.47678C6.46763 9.39529 6.29498 9.35272 6.1197 9.35272C5.94443 9.35272 5.77177 9.39529 5.61659 9.47678L3.26192 10.7151C3.21721 10.7387 3.16675 10.7494 3.11629 10.7458C3.06583 10.7422 3.01738 10.7245 2.97647 10.6948C2.93556 10.665 2.90381 10.6244 2.88485 10.5775C2.86589 10.5306 2.86048 10.4793 2.86922 10.4295L3.31853 7.80857C3.34821 7.63554 3.33535 7.45789 3.28106 7.29094C3.22678 7.12399 3.13269 6.97276 3.00692 6.85028L1.10156 4.99541C1.06514 4.96024 1.03934 4.91554 1.02708 4.86642C1.01483 4.8173 1.01661 4.76572 1.03224 4.71756C1.04787 4.6694 1.07671 4.6266 1.11547 4.59403C1.15424 4.56147 1.20137 4.54044 1.2515 4.53335L3.88565 4.1483C4.05918 4.12306 4.22398 4.05602 4.36586 3.95297C4.50774 3.84991 4.62245 3.71392 4.70012 3.5567L5.87771 1.17042Z" stroke="#0B3535" stroke-width="1.02" stroke-linecap="round" stroke-linejoin="round"/>
</g>
<defs>
<clipPath id="clip0_52_2388">
<rect width="12.24" height="12.24" fill="white"/>
</clipPath>
</defs>
</svg>
