<svg width="12" height="12" viewBox="0 0 12 12" fill="none" xmlns="http://www.w3.org/2000/svg">
<path d="M4 10.5C4.26522 10.5 4.51957 10.3946 4.70711 10.2071C4.89464 10.0196 5 9.76522 5 9.5V6.5C5 6.23478 4.89464 5.98043 4.70711 5.79289C4.51957 5.60536 4.26522 5.5 4 5.5C3.86739 5.5 3.74021 5.44732 3.64645 5.35355C3.55268 5.25979 3.5 5.13261 3.5 5V4.5C3.5 4.23478 3.60536 3.98043 3.79289 3.79289C3.98043 3.60536 4.23478 3.5 4.5 3.5C4.63261 3.5 4.75979 3.44732 4.85355 3.35355C4.94732 3.25979 5 3.13261 5 3V2C5 1.86739 4.94732 1.74021 4.85355 1.64645C4.75979 1.55268 4.63261 1.5 4.5 1.5C3.70435 1.5 2.94129 1.81607 2.37868 2.37868C1.81607 2.94129 1.5 3.70435 1.5 4.5V9.5C1.5 9.76522 1.60536 10.0196 1.79289 10.2071C1.98043 10.3946 2.23478 10.5 2.5 10.5H4Z" stroke="#00BBA7" stroke-linecap="round" stroke-linejoin="round"/>
<path d="M9.5 10.5C9.76522 10.5 10.0196 10.3946 10.2071 10.2071C10.3946 10.0196 10.5 9.76522 10.5 9.5V6.5C10.5 6.23478 10.3946 5.98043 10.2071 5.79289C10.0196 5.60536 9.76522 5.5 9.5 5.5C9.36739 5.5 9.24021 5.44732 9.14645 5.35355C9.05268 5.25979 9 5.13261 9 5V4.5C9 4.23478 9.10536 3.98043 9.29289 3.79289C9.48043 3.60536 9.73478 3.5 10 3.5C10.1326 3.5 10.2598 3.44732 10.3536 3.35355C10.4473 3.25979 10.5 3.13261 10.5 3V2C10.5 1.86739 10.4473 1.74021 10.3536 1.64645C10.2598 1.55268 10.1326 1.5 10 1.5C9.20435 1.5 8.44129 1.81607 7.87868 2.37868C7.31607 2.94129 7 3.70435 7 4.5V9.5C7 9.76522 7.10536 10.0196 7.29289 10.2071C7.48043 10.3946 7.73478 10.5 8 10.5H9.5Z" stroke="#00BBA7" stroke-linecap="round" stroke-linejoin="round"/>
</svg>
