<svg width="16" height="16" viewBox="0 0 16 16" fill="none" xmlns="http://www.w3.org/2000/svg">
<g filter="url(#filter0_d_48_1295)">
<path d="M6.62455 9.66685C6.56503 9.43614 6.44477 9.22559 6.27629 9.05711C6.10781 8.88863 5.89726 8.76837 5.66655 8.70885L1.57655 7.65419C1.50677 7.63438 1.44535 7.59235 1.40162 7.53448C1.35789 7.47661 1.33423 7.40606 1.33423 7.33352C1.33423 7.26098 1.35789 7.19043 1.40162 7.13256C1.44535 7.07469 1.50677 7.03266 1.57655 7.01285L5.66655 5.95752C5.89718 5.89806 6.10767 5.7779 6.27615 5.60955C6.44462 5.44119 6.56492 5.23078 6.62455 5.00019L7.67921 0.910187C7.69882 0.840132 7.7408 0.778414 7.79876 0.734449C7.85672 0.690485 7.92747 0.666687 8.00021 0.666687C8.07296 0.666687 8.14371 0.690485 8.20166 0.734449C8.25962 0.778414 8.30161 0.840132 8.32121 0.910187L9.37521 5.00019C9.43473 5.2309 9.55499 5.44145 9.72347 5.60993C9.89195 5.77841 10.1025 5.89867 10.3332 5.95819L14.4232 7.01219C14.4935 7.03159 14.5556 7.07353 14.5998 7.13157C14.644 7.18962 14.6679 7.26056 14.6679 7.33352C14.6679 7.40648 14.644 7.47742 14.5998 7.53547C14.5556 7.59351 14.4935 7.63545 14.4232 7.65485L10.3332 8.70885C10.1025 8.76837 9.89195 8.88863 9.72347 9.05711C9.55499 9.22559 9.43473 9.43614 9.37521 9.66685L8.32055 13.7569C8.30094 13.8269 8.25896 13.8886 8.201 13.9326C8.14304 13.9766 8.07229 14.0004 7.99955 14.0004C7.9268 14.0004 7.85605 13.9766 7.79809 13.9326C7.74013 13.8886 7.69815 13.8269 7.67855 13.7569L6.62455 9.66685Z" stroke="#00BBA7" stroke-width="1.33333" stroke-linecap="round" stroke-linejoin="round" shape-rendering="crispEdges"/>
</g>
<defs>
<filter id="filter0_d_48_1295" x="-3.33252" y="0" width="22.667" height="22.667" filterUnits="userSpaceOnUse" color-interpolation-filters="sRGB">
<feFlood flood-opacity="0" result="BackgroundImageFix"/>
<feColorMatrix in="SourceAlpha" type="matrix" values="0 0 0 0 0 0 0 0 0 0 0 0 0 0 0 0 0 0 127 0" result="hardAlpha"/>
<feOffset dy="4"/>
<feGaussianBlur stdDeviation="2"/>
<feComposite in2="hardAlpha" operator="out"/>
<feColorMatrix type="matrix" values="0 0 0 0 0 0 0 0 0 0 0 0 0 0 0 0 0 0 0.25 0"/>
<feBlend mode="normal" in2="BackgroundImageFix" result="effect1_dropShadow_48_1295"/>
<feBlend mode="normal" in="SourceGraphic" in2="effect1_dropShadow_48_1295" result="shape"/>
</filter>
</defs>
</svg>
