<svg width="12" height="12" viewBox="0 0 12 12" fill="none" xmlns="http://www.w3.org/2000/svg">
<g clip-path="url(#clip0_309_114)">
<path d="M8.73606 7.19102C8.58756 7.11652 7.85706 6.75752 7.72106 6.70752C7.58456 6.65802 7.48556 6.63352 7.38606 6.78252C7.28756 6.93102 7.00256 7.26552 6.91606 7.36452C6.82956 7.46402 6.74256 7.47602 6.59406 7.40202C6.44556 7.32702 5.96656 7.17052 5.39906 6.66452C4.95756 6.27052 4.65906 5.78402 4.57256 5.63502C4.48606 5.48652 4.56356 5.40602 4.63756 5.33202C4.70456 5.26552 4.78656 5.15852 4.86056 5.07202C4.93506 4.98502 4.95956 4.92302 5.00956 4.82352C5.05906 4.72452 5.03456 4.63802 4.99706 4.56352C4.95956 4.48902 4.66256 3.75752 4.53906 3.46002C4.41806 3.17052 4.29556 3.21002 4.20456 3.20502C4.11806 3.20102 4.01906 3.20002 3.91956 3.20002C3.82056 3.20002 3.65956 3.23702 3.52356 3.38602C3.38756 3.53452 3.00356 3.89402 3.00356 4.62552C3.00356 5.35652 3.53606 6.06302 3.61006 6.16252C3.68456 6.26152 4.65806 7.76252 6.14856 8.40602C6.50306 8.55902 6.77956 8.65052 6.99556 8.71852C7.35156 8.83202 7.67556 8.81602 7.93106 8.77752C8.21656 8.73502 8.81007 8.41802 8.93406 8.07102C9.05806 7.72402 9.05807 7.42652 9.02057 7.36452C8.98357 7.30252 8.88507 7.26552 8.73606 7.19102ZM6.02506 10.8925H6.02306C5.13795 10.8926 4.2691 10.6546 3.50756 10.2035L3.32706 10.0965L1.45656 10.5875L1.95556 8.76352L1.83806 8.57652C1.34328 7.78865 1.08153 6.87686 1.08306 5.94652C1.08356 3.22152 3.30106 1.00452 6.02706 1.00452C7.34706 1.00452 8.58807 1.51952 9.52106 2.45352C9.9814 2.91183 10.3463 3.45688 10.5946 4.05714C10.8429 4.6574 10.9696 5.30094 10.9676 5.95052C10.9661 8.67552 8.74906 10.8925 6.02506 10.8925ZM10.2316 1.74402C9.68066 1.18948 9.02518 0.749789 8.30311 0.450421C7.58104 0.151052 6.80673 -0.00203812 6.02506 2.04888e-05C2.74756 2.04888e-05 0.0800645 2.66752 0.0785645 5.94602C0.0785645 6.99402 0.352064 8.01702 0.872564 8.91852L0.0285645 12L3.18106 11.173C4.05286 11.648 5.02978 11.8969 6.02256 11.897H6.02506C9.30206 11.897 11.9701 9.22952 11.9716 5.95052C11.974 5.16916 11.8214 4.39507 11.5228 3.67304C11.2241 2.951 10.7852 2.29536 10.2316 1.74402Z" fill="#25D366"/>
</g>
<defs>
<clipPath id="clip0_309_114">
<rect width="12" height="12" fill="white"/>
</clipPath>
</defs>
</svg>
